<?xml version="1.0" encoding="iso-8859-1"?>
<!-- Generator: Adobe Illustrator 19.0.0, SVG Export Plug-In . SVG Version: 6.00 Build 0)  -->
<svg xmlns="http://www.w3.org/2000/svg" xmlns:xlink="http://www.w3.org/1999/xlink" version="1.1" id="Capa_1" x="0px" y="0px" viewBox="0 0 512 512" style="enable-background:new 0 0 512 512;" xml:space="preserve">
<g>
	<g>
		<path d="M418.51,185.115l-150-180c-5.68-6.82-19.34-6.82-25.03,0l-150,180c-8.17,9.77-1.16,24.61,11.52,24.61h75V377    c0,8.29,6.71,15,15,15h122c8.29,0,15-6.71,15-15V209.725h75C419.68,209.725,426.68,194.885,418.51,185.115z"/>
	</g>
</g>
<g>
	<g>
		<path d="M497,302h-60c-8.29,0-15,6.71-15,15v105H90V317c0-8.29-6.71-15-15-15H15c-8.29,0-15,6.71-15,15v150    c0,24.82,20.18,45,45,45h422c24.81,0,45-20.18,45-45V317C512,308.71,505.29,302,497,302z"/>
	</g>
</g>
<g>
</g>
<g>
</g>
<g>
</g>
<g>
</g>
<g>
</g>
<g>
</g>
<g>
</g>
<g>
</g>
<g>
</g>
<g>
</g>
<g>
</g>
<g>
</g>
<g>
</g>
<g>
</g>
<g>
</g>
</svg>
