<?xml version="1.0" encoding="iso-8859-1"?>
<!-- Generator: Adobe Illustrator 19.0.0, SVG Export Plug-In . SVG Version: 6.00 Build 0)  -->
<svg xmlns="http://www.w3.org/2000/svg" xmlns:xlink="http://www.w3.org/1999/xlink" version="1.1" id="Capa_1" x="0px" y="0px" viewBox="0 0 512 512" style="enable-background:new 0 0 512 512;" xml:space="preserve">
<g>
	<g>
		<path d="M226.81,164.12l-79.86-79.86l58.65-58.65C215.01,16.2,208.36,0,195,0H15C6.71,0,0,6.71,0,15v180    c0,13.3,16.11,20.07,25.6,10.61l57.72-57.72l79.86,79.87c5.86,5.86,15.35,5.86,21.21,0l42.42-42.42    C232.67,179.48,232.67,169.98,226.81,164.12z"/>
	</g>
</g>
<g>
	<g>
		<path d="M226.81,328.55l-42.42-42.43c-5.86-5.85-15.35-5.85-21.21,0l-78.93,78.93L25.6,306.4C16.2,296.96,0,303.68,0,317v180    c0,8.29,6.71,15,15,15h180c13.36,0,20.01-16.19,10.6-25.6l-57.71-57.72l78.92-78.92C232.67,343.9,232.67,334.41,226.81,328.55z"/>
	</g>
</g>
<g>
	<g>
		<path d="M486.39,306.4l-58.65,58.65l-78.93-78.93c-5.86-5.85-15.35-5.85-21.21,0l-42.42,42.43c-5.86,5.86-5.86,15.35,0,21.21    l78.93,78.92l-57.72,57.72c-9.41,9.41-2.75,25.6,10.61,25.6h180c8.29,0,15-6.71,15-15V317C512,303.76,495.93,296.89,486.39,306.4z    "/>
	</g>
</g>
<g>
	<g>
		<path d="M497,0H317c-13.36,0-20.02,16.2-10.61,25.61l58.65,58.65l-79.86,79.86c-5.86,5.86-5.86,15.36,0,21.22l42.42,42.42    c5.86,5.86,15.35,5.86,21.21,0l79.87-79.87l57.71,57.72c9.5,9.5,25.61,2.66,25.61-10.61V15C512,6.71,505.29,0,497,0z"/>
	</g>
</g>
<g>
</g>
<g>
</g>
<g>
</g>
<g>
</g>
<g>
</g>
<g>
</g>
<g>
</g>
<g>
</g>
<g>
</g>
<g>
</g>
<g>
</g>
<g>
</g>
<g>
</g>
<g>
</g>
<g>
</g>
</svg>
