<?xml version="1.0" encoding="iso-8859-1"?>
<!-- Generator: Adobe Illustrator 19.0.0, SVG Export Plug-In . SVG Version: 6.00 Build 0)  -->
<svg xmlns="http://www.w3.org/2000/svg" xmlns:xlink="http://www.w3.org/1999/xlink" version="1.1" id="Capa_1" x="0px" y="0px" viewBox="0 0 512 512" style="enable-background:new 0 0 512 512;" xml:space="preserve">
<g>
	<g>
		<path d="M345,242.828h-75v-105c0-8.291-6.709-15-15-15s-15,6.709-15,15v120c0,8.291,6.709,15,15,15h90c8.291,0,15-6.709,15-15    C360,249.537,353.291,242.828,345,242.828z"/>
	</g>
</g>
<g>
	<g>
		<path d="M356.27,21.651C241.532-26.885,116.848,8.5,45.89,111l-21.9-16.42C14.23,87.19,0,94.171,0,106.58v150    c0,10.99,11.54,18.41,21.71,13.42l120-60c9.91-4.97,11.22-18.71,2.28-25.42l-25.6-19.21c51.2-77.754,137.75-88.325,202.83-60.84    c61.21,25.93,100.98,85.61,100.98,152.05c0,66.46-39.77,126.14-101,152.05c-85.73,36.3-183.39-5.51-218.25-87.82    C93.19,297.7,66.61,287.28,44,296.88c-22.95,9.67-33.62,36.12-23.94,58.94c54.26,128.62,205.1,191.23,336.18,135.69    C450.85,451.57,512,359.35,512,256.58C512,153.82,450.87,61.611,356.27,21.651z"/>
	</g>
</g>
<g>
</g>
<g>
</g>
<g>
</g>
<g>
</g>
<g>
</g>
<g>
</g>
<g>
</g>
<g>
</g>
<g>
</g>
<g>
</g>
<g>
</g>
<g>
</g>
<g>
</g>
<g>
</g>
<g>
</g>
</svg>
