<?xml version="1.0" encoding="iso-8859-1"?>
<!-- Generator: Adobe Illustrator 19.0.0, SVG Export Plug-In . SVG Version: 6.00 Build 0)  -->
<svg xmlns="http://www.w3.org/2000/svg" xmlns:xlink="http://www.w3.org/1999/xlink" version="1.1" id="Capa_1" x="0px" y="0px" viewBox="0 0 512 512" style="enable-background:new 0 0 512 512;" xml:space="preserve">
<g>
	<g>
		<path d="M458.167,0.921L216.182,48.924C195.22,53.099,180,71.658,180,93.045v271.264c-19.08-16.183-45.608-26.303-75-26.303    c-57.891,0-105,39.023-105,86.997S47.109,512,105,512s105-39.023,105-86.997V200.746l272-54V300.28    C462.168,282.955,434.299,272,403.25,272c-59.971,0-108.75,40.371-108.75,90c0,49.629,48.779,90,108.75,90S512,411.629,512,362    V45.042C512,16.366,485.544-4.736,458.167,0.921z"/>
	</g>
</g>
<g>
</g>
<g>
</g>
<g>
</g>
<g>
</g>
<g>
</g>
<g>
</g>
<g>
</g>
<g>
</g>
<g>
</g>
<g>
</g>
<g>
</g>
<g>
</g>
<g>
</g>
<g>
</g>
<g>
</g>
</svg>
