<?xml version="1.0" encoding="iso-8859-1"?>
<!-- Generator: Adobe Illustrator 19.0.0, SVG Export Plug-In . SVG Version: 6.00 Build 0)  -->
<svg xmlns="http://www.w3.org/2000/svg" xmlns:xlink="http://www.w3.org/1999/xlink" version="1.1" id="Capa_1" x="0px" y="0px" viewBox="0 0 512 512" style="enable-background:new 0 0 512 512;" xml:space="preserve">
<g>
	<g>
		<path d="M298.54,242.626l-94.043-94.043c-7.984-8.046-22.5-5.112-22.5,13.711c0,8.291-6.709,14.8-15,14.8H0    c0,38.643,0,65.557,0,105.2c0,24.814,22.186,44.6,47,44.6h74.997h45c8.291,0,15,7.109,15,15.4c0,7.345,0.14,13.388,8.086,16.685    c4.937,2.051,10.518,0.952,14.282-2.842l94.175-94.175C303.871,256.63,303.871,247.958,298.54,242.626z"/>
	</g>
</g>
<g>
	<g>
		<path d="M47,117.094c-19.53,0-38.024,12.378-44.237,29.8h89.233v-29.6h0.001L47,117.094z"/>
	</g>
</g>
<g>
	<g>
		<path d="M136.996,27.094c-8.291,0-14.799,6.909-14.799,15.2c0,11.408,0,94.978,0,104.6H153.3    c3.281-13.022,12.524-23.565,25.356-28.882c16.157-6.709,34.644-3.062,47.051,9.36l94.043,94.043    c7.817,7.817,11.609,17.943,12.246,28.2V27.094H136.996z"/>
	</g>
</g>
<g>
	<g>
		<path d="M499.94,27.59L362,0v512l137.94-27.59c7-1.41,12.06-7.56,12.06-14.71V42.29C512,35.15,506.94,28.99,499.94,27.59z     M422,282.29c0,8.29-6.71,15-15,15c-8.29,0-15-6.71-15-15v-60c0-8.29,6.71-15,15-15c8.29,0,15,6.71,15,15V282.29z"/>
	</g>
</g>
<g>
	<g>
		<path d="M319.75,283.172l-94.174,94.175c-12.433,12.433-30.872,16.035-46.978,9.346c-12.861-5.332-22.104-16.518-25.342-29.599    h-31.06v112.61c0,8.291,6.509,14.2,14.8,14.2h195V254.972C331.359,265.23,327.567,275.355,319.75,283.172z"/>
	</g>
</g>
<g>
</g>
<g>
</g>
<g>
</g>
<g>
</g>
<g>
</g>
<g>
</g>
<g>
</g>
<g>
</g>
<g>
</g>
<g>
</g>
<g>
</g>
<g>
</g>
<g>
</g>
<g>
</g>
<g>
</g>
</svg>
