<?xml version="1.0" encoding="iso-8859-1"?>
<!-- Generator: Adobe Illustrator 19.0.0, SVG Export Plug-In . SVG Version: 6.00 Build 0)  -->
<svg xmlns="http://www.w3.org/2000/svg" xmlns:xlink="http://www.w3.org/1999/xlink" version="1.1" id="Capa_1" x="0px" y="0px" viewBox="0 0 512 512" style="enable-background:new 0 0 512 512;" xml:space="preserve">
<g>
	<g>
		<polygon points="195.196,101.798 195.196,362.2 316.997,410.197 316.997,149.795   "/>
	</g>
</g>
<g>
	<g>
		<polygon points="90.196,127.539 90.196,389.905 164.996,362.637 164.996,100.269   "/>
	</g>
</g>
<g>
	<g>
		<polygon points="347.197,149.358 347.197,411.726 421.997,384.456 421.997,122.09   "/>
	</g>
</g>
<g>
	<g>
		<path d="M491.87,0.919l-159.61,58.04l-146.7-57.88c-3.4-1.36-7.17-1.42-10.69-0.16l-165,60C3.95,63.068,0,68.699,0,75.008v421.976    c0,10.51,10.47,17.65,20.12,14.09l159.61-58.03l146.7,57.87c3.43,1.39,7.18,1.44,10.69,0.16l165-60    c5.92-2.15,9.88-7.78,9.88-14.09V15.008C512,4.539,501.57-2.631,491.87,0.919z M452,394.955c0,6.32-3.96,11.94-9.88,14.1    c-4.23,1.54-105,38.71-109.1,38.71c-5.79,0-146.88-56.79-152.26-58.94l-100.64,36.59c-9.7,3.55-20.12-3.63-20.12-14.09V117.039    c0-6.32,3.95-11.94,9.87-14.09l103.97-37.81c3.52-1.26,7.33-1.2,10.7,0.16l1.29,0.52h0.01l145.39,57.36l100.64-36.6    c9.72-3.53,20.13,3.62,20.13,14.1V394.955z"/>
	</g>
</g>
<g>
</g>
<g>
</g>
<g>
</g>
<g>
</g>
<g>
</g>
<g>
</g>
<g>
</g>
<g>
</g>
<g>
</g>
<g>
</g>
<g>
</g>
<g>
</g>
<g>
</g>
<g>
</g>
<g>
</g>
</svg>
