<?xml version="1.0" encoding="iso-8859-1"?>
<!-- Generator: Adobe Illustrator 19.0.0, SVG Export Plug-In . SVG Version: 6.00 Build 0)  -->
<svg xmlns="http://www.w3.org/2000/svg" xmlns:xlink="http://www.w3.org/1999/xlink" version="1.1" id="Capa_1" x="0px" y="0px" viewBox="0 0 512 512" style="enable-background:new 0 0 512 512;" xml:space="preserve">
<g>
	<g>
		<path d="M257.034,108.19l-196.863,195v193.809c0,8.29,6.51,15,14.8,15h106.863v-167.44c0-8.29,6.91-14.8,15.2-14.8h120    c8.29,0,15,6.51,15,14.8v167.439h105c8.29,0,14.8-6.71,14.8-15V303.19L257.034,108.19z M257.034,299.559c-33.08,0-60-26.91-60-60    c0-33.09,26.92-60,60-60c33.07,0,60,26.91,60,60C317.034,272.65,290.104,299.559,257.034,299.559z"/>
	</g>
</g>
<g>
	<g>
		<path d="M257.03,209.561c-16.553,0-30,13.461-30,30c0,16.538,13.447,30,30,30c16.553,0,30-13.462,30-30    C287.03,223.023,273.583,209.561,257.03,209.561z"/>
	</g>
</g>
<g>
	<g>
		<rect x="213" y="360.16" width="90" height="151.84"/>
	</g>
</g>
<g>
	<g>
		<path d="M508.729,237.678c-0.011-0.024-0.013-0.049-0.022-0.073c-5.204-12.836-136.68-141.681-146.677-151.677l-73.184-73.184    c-16.992-16.992-46.641-16.992-63.633,0C214.417,23.54,8.698,224.265,3.29,237.603c-0.009,0.024-0.011,0.053-0.011,0.053    c-6.563,16.263-3.276,35.574,9.871,48.721c3.763,3.77,8.113,6.431,12.671,8.54l220.604-218.54c5.859-5.859,15.352-5.859,21.211,0    l218.677,218.677c4.567-2.179,8.851-4.995,12.534-8.677C511.993,273.23,515.28,253.918,508.729,237.678z"/>
	</g>
</g>
<g>
	<g>
		<path d="M437.03,30.161h-60c-7.98,0-14.343,5.666-14.822,13.523l89.622,89.822V44.561C451.83,36.27,445.321,30.161,437.03,30.161z    "/>
	</g>
</g>
<g>
</g>
<g>
</g>
<g>
</g>
<g>
</g>
<g>
</g>
<g>
</g>
<g>
</g>
<g>
</g>
<g>
</g>
<g>
</g>
<g>
</g>
<g>
</g>
<g>
</g>
<g>
</g>
<g>
</g>
</svg>
