<?xml version="1.0" encoding="iso-8859-1"?>
<!-- Generator: Adobe Illustrator 19.0.0, SVG Export Plug-In . SVG Version: 6.00 Build 0)  -->
<svg xmlns="http://www.w3.org/2000/svg" xmlns:xlink="http://www.w3.org/1999/xlink" version="1.1" id="Capa_1" x="0px" y="0px" viewBox="0 0 512 512" style="enable-background:new 0 0 512 512;" xml:space="preserve">
<g>
	<g>
		<path d="M105,16C47.109,16,0,63.109,0,121s47.109,105,105,105s105-47.109,105-105S162.891,16,105,16z"/>
	</g>
</g>
<g>
	<g>
		<path d="M407,16H188.806C219.754,40.76,240,78.373,240,121s-20.246,80.24-51.194,105H407c57.891,0,105-47.109,105-105    S464.891,16,407,16z"/>
	</g>
</g>
<g>
	<g>
		<path d="M407,286c-57.891,0-105,47.109-105,105s47.109,105,105,105s105-47.109,105-105S464.891,286,407,286z"/>
	</g>
</g>
<g>
	<g>
		<path d="M272,391c0-42.627,20.246-80.24,51.194-105H105C47.109,286,0,333.109,0,391s47.109,105,105,105h218.194    C292.246,471.24,272,433.627,272,391z"/>
	</g>
</g>
<g>
</g>
<g>
</g>
<g>
</g>
<g>
</g>
<g>
</g>
<g>
</g>
<g>
</g>
<g>
</g>
<g>
</g>
<g>
</g>
<g>
</g>
<g>
</g>
<g>
</g>
<g>
</g>
<g>
</g>
</svg>
