<?xml version="1.0" encoding="iso-8859-1"?>
<!-- Generator: Adobe Illustrator 19.0.0, SVG Export Plug-In . SVG Version: 6.00 Build 0)  -->
<svg xmlns="http://www.w3.org/2000/svg" xmlns:xlink="http://www.w3.org/1999/xlink" version="1.1" id="Capa_1" x="0px" y="0px" viewBox="0 0 512 512" style="enable-background:new 0 0 512 512;" xml:space="preserve">
<g>
	<g>
		<path d="M301.997,150.001c-16.553,0-30,13.462-30,30c0,16.538,13.447,30,30,30c16.553,0,30-13.462,30-30    C331.997,163.463,318.55,150.001,301.997,150.001z"/>
	</g>
</g>
<g>
	<g>
		<polygon points="346.997,306.212 308.207,345.001 383.207,422.001 421.997,422.001 421.997,381.212   "/>
	</g>
</g>
<g>
	<g>
		<path d="M467,0H45C20.18,0,0,20.19,0,45v422c0,24.82,20.18,45,45,45h422c24.81,0,45-20.18,45-45V45C512,20.19,491.81,0,467,0z     M452,437c0,8.29-6.71,15-15,15H75c-8.29,0-15-6.71-15-15V75c0-8.29,6.71-15,15-15h362c8.29,0,15,6.71,15,15V437z"/>
	</g>
</g>
<g>
	<g>
		<polygon points="165,246.211 90,321.211 90,422 340.789,422   "/>
	</g>
</g>
<g>
	<g>
		<path d="M90,90v188.79l64.39-64.39c5.86-5.86,15.35-5.86,21.21,0L287,323.79l49.39-49.39c5.86-5.86,15.35-5.86,21.21,0l64.4,64.39    V90H90z M302,240c-33.08,0-60-26.91-60-60c0-33.09,26.92-60,60-60c33.07,0,60,26.91,60,60C362,213.09,335.07,240,302,240z"/>
	</g>
</g>
<g>
</g>
<g>
</g>
<g>
</g>
<g>
</g>
<g>
</g>
<g>
</g>
<g>
</g>
<g>
</g>
<g>
</g>
<g>
</g>
<g>
</g>
<g>
</g>
<g>
</g>
<g>
</g>
<g>
</g>
</svg>
