<?xml version="1.0" encoding="iso-8859-1"?>
<!-- Generator: Adobe Illustrator 19.0.0, SVG Export Plug-In . SVG Version: 6.00 Build 0)  -->
<svg xmlns="http://www.w3.org/2000/svg" xmlns:xlink="http://www.w3.org/1999/xlink" version="1.1" id="Capa_1" x="0px" y="0px" viewBox="0 0 512 512" style="enable-background:new 0 0 512 512;" xml:space="preserve">
<g>
	<g>
		<path d="M407,302c-54.088,0-103.618,44.299-104.789,102.922C302.196,405.63,302,406.288,302,407c0,57.891,47.109,105,105,105    s105-47.109,105-105S464.891,302,407,302z"/>
	</g>
</g>
<g>
	<g>
		<path d="M407,0c-57.678,0-106.029,47.122-104.789,107.078C303.382,165.695,352.913,210,407,210c57.891,0,105-47.109,105-105    S464.891,0,407,0z"/>
	</g>
</g>
<g>
	<g>
		<path d="M105,152C47.109,152,0,199.109,0,257s47.109,105,105,105C243.124,362,243.471,152,105,152z"/>
	</g>
</g>
<g>
	<g>
		<path d="M273.654,123.357l-73.206,36.603c21.764,20.964,36.03,49.173,39.899,80.68l73.198-36.605    C291.783,183.071,277.519,154.862,273.654,123.357z"/>
	</g>
</g>
<g>
	<g>
		<path d="M240.347,273.36c-3.869,31.507-18.135,59.716-39.899,80.68l73.206,36.603c3.865-31.505,18.129-59.714,39.891-80.678    L240.347,273.36z"/>
	</g>
</g>
<g>
</g>
<g>
</g>
<g>
</g>
<g>
</g>
<g>
</g>
<g>
</g>
<g>
</g>
<g>
</g>
<g>
</g>
<g>
</g>
<g>
</g>
<g>
</g>
<g>
</g>
<g>
</g>
<g>
</g>
</svg>
