<?xml version="1.0" encoding="iso-8859-1"?>
<!-- Generator: Adobe Illustrator 19.0.0, SVG Export Plug-In . SVG Version: 6.00 Build 0)  -->
<svg xmlns="http://www.w3.org/2000/svg" xmlns:xlink="http://www.w3.org/1999/xlink" version="1.1" id="Capa_1" x="0px" y="0px" viewBox="0 0 512 512" style="enable-background:new 0 0 512 512;" xml:space="preserve">
<g>
	<g>
		<path d="M377,31c-60.67,0-99.61,42.37-120,80.53C236.61,73.37,195.68,31,135,31C58.04,31,0,93.98,0,177.51    c0,90.4,72.8,152.42,182.99,246.33c19.51,16.64,42.31,34.35,64.14,53.45c2.81,2.48,6.36,3.71,9.87,3.71    c3.52,0,7.06-1.23,9.87-3.71c21.83-19.1,42.63-36.81,62.14-53.45C439.2,329.93,512,267.91,512,177.51C512,93.98,453.96,31,377,31z    "/>
	</g>
</g>
<g>
</g>
<g>
</g>
<g>
</g>
<g>
</g>
<g>
</g>
<g>
</g>
<g>
</g>
<g>
</g>
<g>
</g>
<g>
</g>
<g>
</g>
<g>
</g>
<g>
</g>
<g>
</g>
<g>
</g>
</svg>
