<?xml version="1.0" encoding="iso-8859-1"?>
<!-- Generator: Adobe Illustrator 19.0.0, SVG Export Plug-In . SVG Version: 6.00 Build 0)  -->
<svg xmlns="http://www.w3.org/2000/svg" xmlns:xlink="http://www.w3.org/1999/xlink" version="1.1" id="Capa_1" x="0px" y="0px" viewBox="0 0 512 512" style="enable-background:new 0 0 512 512;" xml:space="preserve">
<g>
	<g>
		<path d="M91,0C49.633,0,16,33.647,16,75c0,39.991,33.606,75,75,75c35.671,0,65.466-25.071,73.03-58.475    C174.884,43.617,138.104,0,91,0z"/>
	</g>
</g>
<g>
	<g>
		<path d="M91,182c-15.352,0-30.825-3.641-45-10.501V497c0,8.399,6.599,15,15,15h60c8.401,0,15-6.601,15-15V171.799    C122.172,178.491,105.66,182,91,182z"/>
	</g>
</g>
<g>
	<g>
		<path d="M470.501,126.499C421,176,368.2,151.7,307.301,123.5c-35.7-16.8-74.101-33.9-112.5-33.9    c-2.701,23.1-13.2,44.399-28.801,60.3v214.498c39.6-14.699,81.599,4.501,128.699,26.102c65.149,30.11,133.604,60.89,196.8-3.001    C494.5,384.8,496,380.9,496,377V137C496,123.797,479.509,116.847,470.501,126.499z"/>
	</g>
</g>
<g>
</g>
<g>
</g>
<g>
</g>
<g>
</g>
<g>
</g>
<g>
</g>
<g>
</g>
<g>
</g>
<g>
</g>
<g>
</g>
<g>
</g>
<g>
</g>
<g>
</g>
<g>
</g>
<g>
</g>
</svg>
