<?xml version="1.0" encoding="iso-8859-1"?>
<!-- Generator: Adobe Illustrator 19.0.0, SVG Export Plug-In . SVG Version: 6.00 Build 0)  -->
<svg xmlns="http://www.w3.org/2000/svg" xmlns:xlink="http://www.w3.org/1999/xlink" version="1.1" id="Capa_1" x="0px" y="0px" viewBox="0 0 512.001 512.001" style="enable-background:new 0 0 512.001 512.001;" xml:space="preserve">
<g>
	<g>
		<path d="M287,0.053c-8.291,0-15,6.709-15,15s6.709,15,15,15c107.52,0,195,87.48,195,195c0,8.291,6.709,15,15,15s15-6.709,15-15    C512,100.981,411.072,0.053,287,0.053z"/>
	</g>
</g>
<g>
	<g>
		<path d="M287,60.053c-8.291,0-15,6.709-15,15s6.709,15,15,15c74.443,0,135,60.557,135,135c0,8.291,6.709,15,15,15s15-6.709,15-15    C452,134.072,377.981,60.053,287,60.053z"/>
	</g>
</g>
<g>
	<g>
		<path d="M287,120.053c-8.291,0-15,6.709-15,15s6.709,15,15,15c41.353,0,75,33.647,75,75c0,8.291,6.709,15,15,15s15-6.709,15-15    C392,167.162,344.891,120.053,287,120.053z"/>
	</g>
</g>
<g>
	<g>
		<path d="M287,180.053c-8.291,0-15,6.709-15,15s6.709,15,15,15c8.276,0,15,6.724,15,15c0,8.291,6.709,15,15,15s15-6.709,15-15    C332,200.239,311.814,180.053,287,180.053z"/>
	</g>
</g>
<g>
	<g>
		<path d="M199.321,98.059l-84.844-84.844c-17.549-17.563-46.099-17.534-63.647,0L40.283,23.761l148.491,148.492l10.547-10.547    c8.496-8.496,13.184-19.805,13.184-31.831C212.505,117.863,207.817,106.555,199.321,98.059z"/>
	</g>
</g>
<g>
	<g>
		<path d="M498.839,398.241l-84.844-84.844c-17.007-17.007-46.685-16.978-63.633,0l-10.558,10.551l148.487,148.487l10.548-10.547    C516.388,444.339,516.388,415.789,498.839,398.241z"/>
	</g>
</g>
<g>
	<g>
		<path d="M316.456,343.022c-16.708,7.925-37.143,5.396-50.953-8.414L178.11,246.55c-13.81-13.81-16.339-34.244-8.414-50.953    L20.229,46.13c-42.59,65.466-21.008,233.668,94.248,348.911c113.878,113.878,283.898,140.842,351.001,97.003L316.456,343.022z"/>
	</g>
</g>
<g>
</g>
<g>
</g>
<g>
</g>
<g>
</g>
<g>
</g>
<g>
</g>
<g>
</g>
<g>
</g>
<g>
</g>
<g>
</g>
<g>
</g>
<g>
</g>
<g>
</g>
<g>
</g>
<g>
</g>
</svg>
