<?xml version="1.0" encoding="iso-8859-1"?>
<!-- Generator: Adobe Illustrator 19.0.0, SVG Export Plug-In . SVG Version: 6.00 Build 0)  -->
<svg xmlns="http://www.w3.org/2000/svg" xmlns:xlink="http://www.w3.org/1999/xlink" version="1.1" id="Capa_1" x="0px" y="0px" viewBox="0 0 512 512" style="enable-background:new 0 0 512 512;" xml:space="preserve">
<g>
	<g>
		<rect y="362" width="90" height="60"/>
	</g>
</g>
<g>
	<g>
		<rect x="120" y="270" width="272" height="242"/>
	</g>
</g>
<g>
	<g>
		<rect x="120" width="272" height="240"/>
	</g>
</g>
<g>
	<g>
		<rect y="270" width="90" height="62"/>
	</g>
</g>
<g>
	<g>
		<rect y="90" width="90" height="60"/>
	</g>
</g>
<g>
	<g>
		<rect y="180" width="90" height="60"/>
	</g>
</g>
<g>
	<g>
		<rect x="422" y="90" width="90" height="60"/>
	</g>
</g>
<g>
	<g>
		<rect x="422" y="362" width="90" height="60"/>
	</g>
</g>
<g>
	<g>
		<path d="M0,452v15c0,24.814,20.186,45,45,45h45v-60H0z"/>
	</g>
</g>
<g>
	<g>
		<path d="M45,0C20.186,0,0,20.186,0,45v15h90V0H45z"/>
	</g>
</g>
<g>
	<g>
		<path d="M422,452v60h45c24.814,0,45-20.186,45-45v-15H422z"/>
	</g>
</g>
<g>
	<g>
		<path d="M467,0h-45v60h90V45C512,20.186,491.814,0,467,0z"/>
	</g>
</g>
<g>
	<g>
		<rect x="422" y="180" width="90" height="60"/>
	</g>
</g>
<g>
	<g>
		<rect x="422" y="270" width="90" height="62"/>
	</g>
</g>
<g>
</g>
<g>
</g>
<g>
</g>
<g>
</g>
<g>
</g>
<g>
</g>
<g>
</g>
<g>
</g>
<g>
</g>
<g>
</g>
<g>
</g>
<g>
</g>
<g>
</g>
<g>
</g>
<g>
</g>
</svg>
