<?xml version="1.0" encoding="iso-8859-1"?>
<!-- Generator: Adobe Illustrator 19.0.0, SVG Export Plug-In . SVG Version: 6.00 Build 0)  -->
<svg xmlns="http://www.w3.org/2000/svg" xmlns:xlink="http://www.w3.org/1999/xlink" version="1.1" id="Capa_1" x="0px" y="0px" viewBox="0 0 512.001 512.001" style="enable-background:new 0 0 512.001 512.001;" xml:space="preserve">
<g>
	<g>
		<rect x="150.999" y="150" width="210" height="272"/>
	</g>
</g>
<g>
	<g>
		<path d="M346.003,60h-16.5c-6.97-34.19-37.29-60-73.5-60c-36.21,0-66.54,25.81-73.51,60h-16.49c-8.29,0-15,6.72-15,15v45h210    c0-1.31,0-45,0-45C361.003,66.72,354.283,60,346.003,60z M256.003,90c-8.29,0-15-6.72-15-15c0-8.28,6.71-15,15-15    c8.28,0,15,6.72,15,15C271.003,83.28,264.283,90,256.003,90z"/>
	</g>
</g>
<g>
	<g>
		<path d="M406,90.001h-15c0,124.885,0,148.415,0,347c0,8.291-6.709,15-15,15H136c-8.291,0-15-6.709-15-15    c0-198.047,0-222.533,0-347h-15c-24.814,0-45,20.186-45,45v332c0,24.814,20.186,45,45,45h300c24.814,0,45-20.186,45-45v-332    C451,110.187,430.814,90.001,406,90.001z"/>
	</g>
</g>
<g>
</g>
<g>
</g>
<g>
</g>
<g>
</g>
<g>
</g>
<g>
</g>
<g>
</g>
<g>
</g>
<g>
</g>
<g>
</g>
<g>
</g>
<g>
</g>
<g>
</g>
<g>
</g>
<g>
</g>
</svg>
