<?xml version="1.0" encoding="iso-8859-1"?>
<!-- Generator: Adobe Illustrator 19.0.0, SVG Export Plug-In . SVG Version: 6.00 Build 0)  -->
<svg xmlns="http://www.w3.org/2000/svg" xmlns:xlink="http://www.w3.org/1999/xlink" version="1.1" id="Capa_1" x="0px" y="0px" viewBox="0 0 512 512" style="enable-background:new 0 0 512 512;" xml:space="preserve">
<g>
	<g>
		<path d="M347,120h-90c-8.291,0-15,6.709-15,15v317h120V135C362,126.709,355.291,120,347,120z"/>
	</g>
</g>
<g>
	<g>
		<path d="M497,210h-90c-8.291,0-15,6.709-15,15v227h120V225C512,216.709,505.291,210,497,210z"/>
	</g>
</g>
<g>
	<g>
		<path d="M197,0h-90c-8.291,0-15,6.709-15,15v437h120V15C212,6.709,205.291,0,197,0z"/>
	</g>
</g>
<g>
	<g>
		<path d="M242,482c-79.739,0-131.891,0-212,0v-30h15c8.291,0,15-6.709,15-15c0-8.291-6.709-15-15-15H30v-62h15    c8.291,0,15-6.709,15-15c0-8.291-6.709-15-15-15H30v-60h15c8.291,0,15-6.709,15-15c0-8.291-6.709-15-15-15H30v-60h15    c8.291,0,15-6.709,15-15s-6.709-15-15-15H30V90h15c8.291,0,15-6.709,15-15s-6.709-15-15-15H30V15c0-8.291-6.709-15-15-15    S0,6.709,0,15v482c0,8.291,6.709,15,15,15c182.997,0,37.947,0,482,0c8.291,0,15-6.709,15-15v-15C409.39,482,338.228,482,242,482z"/>
	</g>
</g>
<g>
</g>
<g>
</g>
<g>
</g>
<g>
</g>
<g>
</g>
<g>
</g>
<g>
</g>
<g>
</g>
<g>
</g>
<g>
</g>
<g>
</g>
<g>
</g>
<g>
</g>
<g>
</g>
<g>
</g>
</svg>
