<?xml version="1.0" encoding="iso-8859-1"?>
<!-- Generator: Adobe Illustrator 19.0.0, SVG Export Plug-In . SVG Version: 6.00 Build 0)  -->
<svg xmlns="http://www.w3.org/2000/svg" xmlns:xlink="http://www.w3.org/1999/xlink" version="1.1" id="Capa_1" x="0px" y="0px" viewBox="0 0 512 512" style="enable-background:new 0 0 512 512;" xml:space="preserve">
<g>
	<g>
		<rect x="270" y="391" width="60" height="30"/>
	</g>
</g>
<g>
	<g>
		<rect x="90" y="89" width="240" height="92"/>
	</g>
</g>
<g>
	<g>
		<path d="M497,60.001h-45v392c0,19.843,9.405,42.198,30.029,42.18C502.62,494.162,512,471.813,512,452.001v-377    C512,66.71,505.291,60.001,497,60.001z"/>
	</g>
</g>
<g>
	<g>
		<path d="M420,452c0-364.33,0-435.5,0-435.5V15c0-8.29-6.71-15-15-15H15C6.7,0,0,6.71,0,15v422c0,41.35,33.64,75,75,75    c303.23,0,234.62,0,368.4,0C429.01,496.04,420,475.13,420,452z M195,452H75c-8.3,0-15-6.71-15-15c0-8.29,6.7-15,15-15h120    c8.29,0,15,6.71,15,15C210,445.29,203.29,452,195,452z M195,392H75c-8.3,0-15-6.71-15-15c0-8.29,6.7-15,15-15h120    c8.29,0,15,6.71,15,15C210,385.29,203.29,392,195,392z M195,332H75c-8.3,0-15-6.71-15-15c0-8.29,6.7-15,15-15h120    c8.29,0,15,6.71,15,15C210,325.29,203.29,332,195,332z M195,272H75c-8.3,0-15-6.71-15-15c0-8.29,6.7-15,15-15h120    c8.29,0,15,6.71,15,15S203.29,272,195,272z M360,437c0,8.29-6.71,15-15,15h-90c-8.3,0-15-6.71-15-15v-60c0-8.29,6.7-15,15-15h90    c8.29,0,15,6.71,15,15V437z M345,332h-90c-8.3,0-15-6.71-15-15c0-8.29,6.7-15,15-15h90c8.29,0,15,6.71,15,15    C360,325.29,353.29,332,345,332z M345,272h-90c-8.3,0-15-6.71-15-15c0-8.29,6.7-15,15-15h90c8.29,0,15,6.71,15,15    S353.29,272,345,272z M360,197c0,8.29-6.71,15-15,15H75c-8.3,0-15-6.71-15-15V75c0-8.29,6.7-15,15-15h270c8.29,0,15,6.71,15,15    V197z"/>
	</g>
</g>
<g>
</g>
<g>
</g>
<g>
</g>
<g>
</g>
<g>
</g>
<g>
</g>
<g>
</g>
<g>
</g>
<g>
</g>
<g>
</g>
<g>
</g>
<g>
</g>
<g>
</g>
<g>
</g>
<g>
</g>
</svg>
