<?xml version="1.0" encoding="iso-8859-1"?>
<!-- Generator: Adobe Illustrator 19.0.0, SVG Export Plug-In . SVG Version: 6.00 Build 0)  -->
<svg xmlns="http://www.w3.org/2000/svg" xmlns:xlink="http://www.w3.org/1999/xlink" version="1.1" id="Capa_1" x="0px" y="0px" viewBox="0 0 512 512" style="enable-background:new 0 0 512 512;" xml:space="preserve">
<g>
	<g>
		<path d="M257,0C116.4,0,0,114.39,0,255s116.4,257,257,257c140.59,0,255-116.39,255-257S397.59,0,257,0z M257.2,452.2    c-107.52,0-197.4-89.68-197.4-197.2S149.68,59.8,257.2,59.8s195,87.68,195,195.2S364.72,452.2,257.2,452.2z"/>
	</g>
</g>
<g>
	<g>
		<path d="M257,90c-90.97,0-167,74.02-167,165s76.03,167,167,167c90.96,0,165-76.02,165-167S347.96,90,257,90z M377,270H257    c-8.29,0-15-6.71-15-15V135c0-8.29,6.71-15,15-15c8.29,0,15,6.71,15,15v105h105c8.29,0,15,6.71,15,15S385.29,270,377,270z"/>
	</g>
</g>
<g>
</g>
<g>
</g>
<g>
</g>
<g>
</g>
<g>
</g>
<g>
</g>
<g>
</g>
<g>
</g>
<g>
</g>
<g>
</g>
<g>
</g>
<g>
</g>
<g>
</g>
<g>
</g>
<g>
</g>
</svg>
