<?xml version="1.0" encoding="iso-8859-1"?>
<!-- Generator: Adobe Illustrator 19.0.0, SVG Export Plug-In . SVG Version: 6.00 Build 0)  -->
<svg xmlns="http://www.w3.org/2000/svg" xmlns:xlink="http://www.w3.org/1999/xlink" version="1.1" id="Capa_1" x="0px" y="0px" viewBox="0 0 512 512" style="enable-background:new 0 0 512 512;" xml:space="preserve">
<g>
	<g>
		<path d="M112,452c-16.538,0-30,13.462-30,30c0,16.538,13.462,30,30,30s30-13.462,30-30C142,465.462,128.538,452,112,452z"/>
	</g>
</g>
<g>
	<g>
		<path d="M302,452c-16.538,0-30,13.462-30,30c0,16.538,13.462,30,30,30c16.538,0,30-13.462,30-30C332,465.462,318.538,452,302,452z    "/>
	</g>
</g>
<g>
	<g>
		<path d="M497,0h-60c-7.5,0-13.801,5.4-14.7,12.599L410.3,92H317v60h84l-4.799,30H317v60h69.901l-4.501,30H317v59.8h56.1    c-0.422,2.833-6.672,44.978-7.058,47.595C364.998,386.701,358.76,392,351.204,392H65.776c-8.291,0-15,6.709-15,15    c0,8.291,6.709,15,15,15h285.428c22.646,0,41.367-16.143,44.517-38.174c0.472-3.065,53.743-350.145,54.179-353.026H497    c8.401,0,15-7.399,15-15.8S505.401,0,497,0z"/>
	</g>
</g>
<g>
	<g>
		<path d="M25.217,272l7.275,47.281C33.617,326.598,39.914,332,47.317,332H127v-60H25.217z"/>
	</g>
</g>
<g>
	<g>
		<polygon points="11.368,182 20.601,242 127,242 127,182   "/>
	</g>
</g>
<g>
	<g>
		<path d="M15.005,92c-9.215,0-16.234,8.216-14.824,17.285L6.752,152H127V92H15.005z"/>
	</g>
</g>
<g>
	<g>
		<rect x="157" y="272" width="130" height="60"/>
	</g>
</g>
<g>
	<g>
		<rect x="157" y="182" width="130" height="60"/>
	</g>
</g>
<g>
	<g>
		<rect x="157" y="92" width="130" height="60"/>
	</g>
</g>
<g>
</g>
<g>
</g>
<g>
</g>
<g>
</g>
<g>
</g>
<g>
</g>
<g>
</g>
<g>
</g>
<g>
</g>
<g>
</g>
<g>
</g>
<g>
</g>
<g>
</g>
<g>
</g>
<g>
</g>
</svg>
