<?xml version="1.0" encoding="iso-8859-1"?>
<!-- Generator: Adobe Illustrator 19.0.0, SVG Export Plug-In . SVG Version: 6.00 Build 0)  -->
<svg xmlns="http://www.w3.org/2000/svg" xmlns:xlink="http://www.w3.org/1999/xlink" version="1.1" id="Capa_1" x="0px" y="0px" viewBox="0 0 512 512" style="enable-background:new 0 0 512 512;" xml:space="preserve">
<g>
	<g>
		<path d="M492.246,102.751C424.203,55.791,342.707,30.957,256.5,30.957S87.808,55.791,19.764,102.751    c-22.104,15.253-26.355,45.629-9.262,65.913c15.183,18.003,42.168,21.654,61.482,8.222    c52.65-36.567,117.123-56.111,184.516-56.111c67.403,0,130.865,19.544,183.525,56.111c19.384,13.453,46.399,9.722,61.442-8.202    C518.561,148.479,514.4,118.044,492.246,102.751z"/>
	</g>
</g>
<g>
	<g>
		<path d="M402.048,195.899C359.33,166.513,308.54,150.98,255.16,150.98c-53.39,0-105.2,15.533-147.869,44.939    c-21.584,14.813-25.015,45.349-9.262,65.433c14.163,18.073,39.308,21.894,58.251,8.932c55.959-38.06,140.879-38.03,196.778,0    c18.984,12.973,44.068,9.172,58.251-8.932C427.233,241.087,423.272,210.531,402.048,195.899z"/>
	</g>
</g>
<g>
	<g>
		<path d="M325.594,286.846c-42.658-20.724-99.339-20.704-141.997-0.02c-25.765,12.482-33.046,46.379-14.593,68.873    c13.063,16.063,35.597,21.214,53.56,12.352c19.35-9.629,44.593-9.689,64.092,0.02c17.913,8.862,40.468,3.661,53.53-12.372    C358.61,333.245,351.409,299.309,325.594,286.846z"/>
	</g>
</g>
<g>
	<g>
		<path d="M255.1,391.026c-24.825,0-46.009,20.194-46.009,45.009c0,24.825,21.184,45.009,46.009,45.009    c24.815,0,45.009-20.184,45.009-45.009C300.109,411.22,279.915,391.026,255.1,391.026z"/>
	</g>
</g>
<g>
</g>
<g>
</g>
<g>
</g>
<g>
</g>
<g>
</g>
<g>
</g>
<g>
</g>
<g>
</g>
<g>
</g>
<g>
</g>
<g>
</g>
<g>
</g>
<g>
</g>
<g>
</g>
<g>
</g>
</svg>
