<?xml version="1.0" encoding="iso-8859-1"?>
<!-- Generator: Adobe Illustrator 19.0.0, SVG Export Plug-In . SVG Version: 6.00 Build 0)  -->
<svg xmlns="http://www.w3.org/2000/svg" xmlns:xlink="http://www.w3.org/1999/xlink" version="1.1" id="Capa_1" x="0px" y="0px" viewBox="0 0 512 512" style="enable-background:new 0 0 512 512;" xml:space="preserve">
<g>
	<g>
		<path d="M119.996,360v137c0,8.284,6.716,15,15,15h242c8.284,0,15-6.716,15-15V360H119.996z"/>
	</g>
</g>
<g>
	<g>
		<path d="M467,180.199H45c-23.8,0-45,19.66-45,44.8v150c0,24.85,20.14,45,45,45h45v-75c0-8.28,6.71-15,15-15h302    c8.28,0,15,6.72,15,15v75h45c24.85,0,45-20.15,45-45v-150C512,199.819,490.83,180.199,467,180.199z M105,270H75    c-8.29,0-15-6.71-15-15c0-8.29,6.71-15,15-15h30c8.29,0,15,6.71,15,15S113.29,270,105,270z M195,270h-30c-8.29,0-15-6.71-15-15    c0-8.29,6.71-15,15-15h30c8.29,0,15,6.71,15,15S203.29,270,195,270z M437,269c-8.29,0-15-6.72-15-15c0-8.28,6.71-15,15-15    c8.28,0,15,6.72,15,15C452,262.28,445.28,269,437,269z"/>
	</g>
</g>
<g>
	<g>
		<path d="M452.196,92.763V150h14.8c5.137,0,10.152,0.529,15,1.518V135C481.996,115.47,469.618,98.976,452.196,92.763z"/>
	</g>
</g>
<g>
	<g>
		<path d="M362.196,1.518V60h58.282C414.498,30.657,391.539,7.498,362.196,1.518z"/>
	</g>
</g>
<g>
	<g>
		<path d="M331.996,75V0h-226.8c-8.284,0-15,6.714-15,15c0,50.201,0,83.133,0,135h331.8V90h-75    C338.712,90,331.996,83.284,331.996,75z"/>
	</g>
</g>
<g>
	<g>
		<path d="M30.196,135v16.518c4.849-0.989,9.664-1.518,14.8-1.518h15V92.763C42.574,98.976,30.196,115.47,30.196,135z"/>
	</g>
</g>
<g>
</g>
<g>
</g>
<g>
</g>
<g>
</g>
<g>
</g>
<g>
</g>
<g>
</g>
<g>
</g>
<g>
</g>
<g>
</g>
<g>
</g>
<g>
</g>
<g>
</g>
<g>
</g>
<g>
</g>
</svg>
