<?xml version="1.0" encoding="iso-8859-1"?>
<!-- Generator: Adobe Illustrator 19.0.0, SVG Export Plug-In . SVG Version: 6.00 Build 0)  -->
<svg xmlns="http://www.w3.org/2000/svg" xmlns:xlink="http://www.w3.org/1999/xlink" version="1.1" id="Capa_1" x="0px" y="0px" viewBox="0 0 512 512" style="enable-background:new 0 0 512 512;" xml:space="preserve">
<g>
	<g>
		<path d="M376.098,0h-300c-24.814,0-45,20.186-45,45v362.001c0,19.53,12.578,36.024,30,42.237V147.422    c0-20.024,7.808-38.862,21.973-53.027l42.422-42.422C139.658,37.808,158.496,30,178.52,30h239.815    C412.122,12.578,395.628,0,376.098,0z"/>
	</g>
</g>
<g>
	<g>
		<path d="M436.102,60.199c-132.53,0-93.96,0-225,0v104.8c0,8.29-6.71,15.2-15,15.2h-105V467c0,24.82,20.18,45,45,45h300    c24.81,0,44.8-20.18,44.8-45V104.999C480.902,80.189,460.912,60.199,436.102,60.199z M406.102,422h-240c-8.29,0-15-6.71-15-15    c0-8.29,6.71-15,15-15h240c8.29,0,15,6.71,15,15C421.102,415.29,414.392,422,406.102,422z M406.102,362h-240    c-8.29,0-15-6.71-15-15c0-8.29,6.71-15,15-15h240c8.29,0,15,6.71,15,15C421.102,355.29,414.392,362,406.102,362z M406.102,302    h-240c-8.29,0-15-6.71-15-15c0-8.29,6.71-15,15-15h240c8.29,0,15,6.71,15,15C421.102,295.29,414.392,302,406.102,302z     M406.102,242h-240c-8.29,0-15-6.71-15-15s6.71-15,15-15h240c8.29,0,15,6.71,15,15S414.392,242,406.102,242z"/>
	</g>
</g>
<g>
	<g>
		<path d="M178.52,60c-12.012,0-23.32,4.688-31.816,13.184l-42.422,42.422c-10.001,10-13.184,21.182-13.184,34.394h90V60H178.52z"/>
	</g>
</g>
<g>
</g>
<g>
</g>
<g>
</g>
<g>
</g>
<g>
</g>
<g>
</g>
<g>
</g>
<g>
</g>
<g>
</g>
<g>
</g>
<g>
</g>
<g>
</g>
<g>
</g>
<g>
</g>
<g>
</g>
</svg>
