<?xml version="1.0" encoding="iso-8859-1"?>
<!-- Generator: Adobe Illustrator 19.0.0, SVG Export Plug-In . SVG Version: 6.00 Build 0)  -->
<svg xmlns="http://www.w3.org/2000/svg" xmlns:xlink="http://www.w3.org/1999/xlink" version="1.1" id="Capa_1" x="0px" y="0px" viewBox="0 0 512.001 512.001" style="enable-background:new 0 0 512.001 512.001;" xml:space="preserve">
<g>
	<g>
		<path d="M76.193,15.137c-29.557-0.01-44.985,32.76-44.985,59.811v89.936c0,8.285,6.704,14.989,14.989,14.989h74.947V74.948    C121.144,47.855,105.675,15.146,76.193,15.137z"/>
	</g>
</g>
<g>
	<g>
		<path d="M405.946,0c-276.134,0.14-226.07,0.15-286.517,0.03c19.496,19.057,31.698,45.558,31.698,74.917    c0,119.965,0-40.201,0,421.701c0,11.582,12.681,18.857,22.704,12.851l142.179-85.31l142.179,85.31    c10.003,5.996,22.604,0.759,22.604-10.852V76.945C480.793,35.625,447.267,0,405.946,0z M412.811,223.991l-37.533,36.584    l8.854,51.653c2.118,12.351-10.942,21.515-21.735,15.799l-46.387-24.373l-46.387,24.373c-10.832,5.756-23.853-3.498-21.745-15.799    l8.854-51.653l-37.523-36.584c-8.874-8.644-3.947-23.783,8.314-25.552l51.843-7.545l23.204-46.987    c5.036-10.243,21.835-10.243,26.871,0l23.204,46.987l51.853,7.545C416.748,200.208,421.675,215.347,412.811,223.991z"/>
	</g>
</g>
<g>
	<g>
		<path d="M348.707,244.618l21.43-20.888l-29.598-4.304c-4.889-0.702-9.105-3.776-11.285-8.197l-13.248-26.832l-13.248,26.832    c-2.181,4.421-6.396,7.495-11.286,8.197l-29.598,4.304l21.43,20.888c3.527,3.44,5.138,8.402,4.304,13.262l-5.05,29.481    l26.48-13.906c4.351-2.306,9.585-2.306,13.935,0l26.48,13.906l-5.05-29.481C343.568,253.02,345.178,248.057,348.707,244.618z"/>
	</g>
</g>
<g>
</g>
<g>
</g>
<g>
</g>
<g>
</g>
<g>
</g>
<g>
</g>
<g>
</g>
<g>
</g>
<g>
</g>
<g>
</g>
<g>
</g>
<g>
</g>
<g>
</g>
<g>
</g>
<g>
</g>
</svg>
