<?xml version="1.0" encoding="iso-8859-1"?>
<!-- Generator: Adobe Illustrator 19.0.0, SVG Export Plug-In . SVG Version: 6.00 Build 0)  -->
<svg xmlns="http://www.w3.org/2000/svg" xmlns:xlink="http://www.w3.org/1999/xlink" version="1.1" id="Capa_1" x="0px" y="0px" viewBox="0 0 512 512" style="enable-background:new 0 0 512 512;" xml:space="preserve">
<g>
	<g>
		<path d="M507.394,300.399l-49.395-49.395l49.395-49.395c13.945-13.945-7.151-35.271-21.211-21.211l-49.395,49.395l-49.395-49.395    c-13.945-13.945-35.271,7.151-21.211,21.211l49.395,49.395l-49.395,49.395c-14.211,14.211,7.47,34.952,21.211,21.211    l49.395-49.395l49.395,49.395C500.129,335.556,521.454,314.459,507.394,300.399z"/>
	</g>
</g>
<g>
	<g>
		<path d="M45,116.004c-24.814,0-45,20.186-45,45v189.967c0,24.814,20.186,45,45,45h75V116.004H45z"/>
	</g>
</g>
<g>
	<g>
		<path d="M304.087,4.31c-15.923-7.471-34.307-5.112-47.9,6.167L150,98.968v314.037l106.201,88.493    C285.419,525.873,330,505.124,330,466.914V45.062C330,27.41,320.068,11.795,304.087,4.31z"/>
	</g>
</g>
<g>
</g>
<g>
</g>
<g>
</g>
<g>
</g>
<g>
</g>
<g>
</g>
<g>
</g>
<g>
</g>
<g>
</g>
<g>
</g>
<g>
</g>
<g>
</g>
<g>
</g>
<g>
</g>
<g>
</g>
</svg>
