<?xml version="1.0" encoding="iso-8859-1"?>
<!-- Generator: Adobe Illustrator 19.0.0, SVG Export Plug-In . SVG Version: 6.00 Build 0)  -->
<svg xmlns="http://www.w3.org/2000/svg" xmlns:xlink="http://www.w3.org/1999/xlink" version="1.1" id="Capa_1" x="0px" y="0px" viewBox="0 0 512 512" style="enable-background:new 0 0 512 512;" xml:space="preserve">
<g>
	<g>
		<path d="M176.344,118.84h64.496V44.108C215.311,65.337,192.43,90.545,176.344,118.84z"/>
	</g>
</g>
<g>
	<g>
		<path d="M141.632,269.24c1.718,31.375,8.709,65.219,20.482,93.52h78.726v-93.52H141.632z"/>
	</g>
</g>
<g>
	<g>
		<path d="M176.744,393.16c16.086,28.295,38.568,53.502,64.096,74.732V393.16H176.744z"/>
	</g>
</g>
<g>
	<g>
		<path d="M489.874,149.24H382.251c10.523,28.555,16.479,58.461,18.018,89.6H512C510.129,206.912,502.471,176.971,489.874,149.24z"/>
	</g>
</g>
<g>
	<g>
		<path d="M271.24,44.443v74.397h64.012C319.205,90.616,296.684,65.64,271.24,44.443z"/>
	</g>
</g>
<g>
	<g>
		<path d="M162.114,149.24c-11.773,28.301-18.764,58.225-20.482,89.6h99.208v-89.6H162.114z"/>
	</g>
</g>
<g>
	<g>
		<path d="M400.269,269.24c-1.538,31.139-7.494,64.965-18.018,93.52h107.622c12.598-27.731,20.255-61.592,22.126-93.52H400.269z"/>
	</g>
</g>
<g>
	<g>
		<path d="M271.24,0v6.835c41.594,29.418,75.875,67.712,97.901,112.005h104.557C431.075,50.912,355.958,4.966,271.24,0z"/>
	</g>
</g>
<g>
	<g>
		<path d="M38.302,118.84h104.557c22.026-44.293,56.389-82.587,97.981-112.005V0C156.123,4.966,80.925,50.912,38.302,118.84z"/>
	</g>
</g>
<g>
	<g>
		<path d="M142.859,393.16H38.302C80.925,461.088,156.123,507.034,240.84,512v-6.835    C199.248,475.747,164.885,437.453,142.859,393.16z"/>
	</g>
</g>
<g>
	<g>
		<path d="M22.126,149.24C9.529,176.971,1.871,206.912,0,238.84h111.731c1.538-31.139,7.496-61.045,18.019-89.6H22.126z"/>
	</g>
</g>
<g>
	<g>
		<path d="M369.141,393.16c-22.026,44.293-56.307,82.587-97.901,112.005V512c84.717-4.966,159.835-50.912,202.458-118.84H369.141z"/>
	</g>
</g>
<g>
	<g>
		<path d="M111.731,269.24H0c1.871,31.928,9.529,65.788,22.126,93.52H129.75C119.227,334.205,113.269,300.379,111.731,269.24z"/>
	</g>
</g>
<g>
	<g>
		<path d="M271.24,269.24v93.52h78.717c11.768-28.29,18.595-62.159,20.312-93.52H271.24z"/>
	</g>
</g>
<g>
	<g>
		<path d="M349.957,149.24H271.24v89.6h99.029C368.552,207.48,361.725,177.53,349.957,149.24z"/>
	</g>
</g>
<g>
	<g>
		<path d="M271.24,393.16v74.397c25.444-21.197,47.965-46.173,64.012-74.397H271.24z"/>
	</g>
</g>
<g>
</g>
<g>
</g>
<g>
</g>
<g>
</g>
<g>
</g>
<g>
</g>
<g>
</g>
<g>
</g>
<g>
</g>
<g>
</g>
<g>
</g>
<g>
</g>
<g>
</g>
<g>
</g>
<g>
</g>
</svg>
