<?xml version="1.0" encoding="iso-8859-1"?>
<!-- Generator: Adobe Illustrator 19.0.0, SVG Export Plug-In . SVG Version: 6.00 Build 0)  -->
<svg xmlns="http://www.w3.org/2000/svg" xmlns:xlink="http://www.w3.org/1999/xlink" version="1.1" id="Capa_1" x="0px" y="0px" viewBox="0 0 512 512" style="enable-background:new 0 0 512 512;" xml:space="preserve">
<g>
	<g>
		<path d="M346,332h-22.46c-12.93,0-18.58-16.11-9.32-23.95C361.64,267.8,391,185.92,391,135C391,60.56,330.44,0,256,0    c-74.45,0-135,60.56-135,135c0,50.92,29.35,132.8,76.77,173.05c9.24,7.82,3.64,23.95-9.32,23.95H166c-74.45,0-135,60.56-135,135    v30c0,8.29,6.71,15,15,15h420c8.29,0,15-6.71,15-15v-30C481,392.56,420.44,332,346,332z"/>
	</g>
</g>
<g>
</g>
<g>
</g>
<g>
</g>
<g>
</g>
<g>
</g>
<g>
</g>
<g>
</g>
<g>
</g>
<g>
</g>
<g>
</g>
<g>
</g>
<g>
</g>
<g>
</g>
<g>
</g>
<g>
</g>
</svg>
