<?xml version="1.0" encoding="iso-8859-1"?>
<!-- Generator: Adobe Illustrator 19.0.0, SVG Export Plug-In . SVG Version: 6.00 Build 0)  -->
<svg xmlns="http://www.w3.org/2000/svg" xmlns:xlink="http://www.w3.org/1999/xlink" version="1.1" id="Capa_1" x="0px" y="0px" viewBox="0 0 512.001 512.001" style="enable-background:new 0 0 512.001 512.001;" xml:space="preserve">
<g>
	<g>
		<polygon points="315.982,68.752 294.766,89.969 422.044,217.238 443.257,196.027   "/>
	</g>
</g>
<g>
	<g>
		<path d="M485.677,26.323c-35.098-35.097-92.168-35.098-127.266,0l-21.218,21.218l127.273,127.273l21.211-21.211    C520.775,118.505,520.775,61.42,485.677,26.323z"/>
	</g>
</g>
<g>
	<g>
		<polygon points="59.011,332.778 34.257,392.886 119.111,477.748 179.227,452.994   "/>
	</g>
</g>
<g>
	<g>
		<polygon points="273.555,111.18 76.69,308.035 203.97,435.315 400.835,238.451   "/>
	</g>
</g>
<g>
	<g>
		<path d="M21.882,422.934L2.276,470.545c-4.629,11.235-2.065,24.038,6.504,32.637c8.45,8.45,21.183,11.25,32.666,6.548    l47.618-19.609L21.882,422.934z"/>
	</g>
</g>
<g>
</g>
<g>
</g>
<g>
</g>
<g>
</g>
<g>
</g>
<g>
</g>
<g>
</g>
<g>
</g>
<g>
</g>
<g>
</g>
<g>
</g>
<g>
</g>
<g>
</g>
<g>
</g>
<g>
</g>
</svg>
