<?xml version="1.0" encoding="iso-8859-1"?>
<!-- Generator: Adobe Illustrator 19.0.0, SVG Export Plug-In . SVG Version: 6.00 Build 0)  -->
<svg xmlns="http://www.w3.org/2000/svg" xmlns:xlink="http://www.w3.org/1999/xlink" version="1.1" id="Capa_1" x="0px" y="0px" viewBox="0 0 512 512" style="enable-background:new 0 0 512 512;" xml:space="preserve">
<g>
	<g>
		<path d="M467.008,166.001H131.849c-22.969,0-42.187,17.212-44.706,40.033l-2.219,19.966h425.677l1.113-10.02    C514.751,188.807,493.187,166.001,467.008,166.001z"/>
	</g>
</g>
<g>
	<g>
		<path d="M81.587,256L58.241,465.997h16.758h368.674c5.742,0,11.25-1.077,16.322-3.047c15.212-5.911,26.495-19.871,28.385-36.986    L507.266,256H81.587z"/>
	</g>
</g>
<g>
	<g>
		<path d="M440.524,106.002H231.207l-55.604-55.604c-2.813-2.813-6.621-4.395-10.605-4.395H44.999C20.186,46.003,0,66.189,0,91.003    v329.995c0,18.948,11.807,35.119,28.418,41.743l28.901-260.017c4.219-38.04,36.254-66.722,74.531-66.722h335.159    c5.546,0,11.006,0.677,16.333,1.87C477.683,119.488,460.74,106.002,440.524,106.002z"/>
	</g>
</g>
<g>
</g>
<g>
</g>
<g>
</g>
<g>
</g>
<g>
</g>
<g>
</g>
<g>
</g>
<g>
</g>
<g>
</g>
<g>
</g>
<g>
</g>
<g>
</g>
<g>
</g>
<g>
</g>
<g>
</g>
</svg>
