<?xml version="1.0" encoding="iso-8859-1"?>
<!-- Generator: Adobe Illustrator 19.0.0, SVG Export Plug-In . SVG Version: 6.00 Build 0)  -->
<svg xmlns="http://www.w3.org/2000/svg" xmlns:xlink="http://www.w3.org/1999/xlink" version="1.1" id="Capa_1" x="0px" y="0px" viewBox="0 0 512 512" style="enable-background:new 0 0 512 512;" xml:space="preserve">
<g>
	<g>
		<path d="M105,136.001c-7.998,0-15,7.002-15,15c0,7.998,7.002,15,15,15s15-7.002,15-15C120,143.003,112.998,136.001,105,136.001z"/>
	</g>
</g>
<g>
	<g>
		<path d="M409.574,240.126c-27.288,28.185-65.343,45.875-107.574,45.875c-38.615,0-75.519-15.073-102.133-39.131    c-24.404,24.15-57.902,39.131-94.867,39.131c-37.885,0-72.048-15.791-96.59-41.006C3.162,252.353,0,261.292,0,271.001v180    c0,24.814,20.186,45,45,45h332c24.814,0,45-20.186,45-45c0-60.744,0-112.782,0-180C422,259.028,417.226,248.195,409.574,240.126z"/>
	</g>
</g>
<g>
	<g>
		<path d="M302,106.001c-16.538,0-30,13.462-30,30c0,16.538,13.462,30,30,30c16.538,0,30-13.462,30-30    C332,119.463,318.538,106.001,302,106.001z"/>
	</g>
</g>
<g>
	<g>
		<path d="M302.004,15.999c-49.59,0-94.25,30.24-112.51,73.25c-19.12-26.09-49.75-43.25-84.49-43.25c-57.89,0-105,47.11-105,105    s47.11,105,105,105c40.69,0,75.65-23.52,93.08-57.45c21.14,34.32,60.74,57.45,103.92,57.45c66.16,0,120-53.83,120-120    C422.004,69.829,368.164,15.999,302.004,15.999z M105.004,195.999c-24.39,0-45-20.61-45-45c0-24.39,20.61-45,45-45    c24.39,0,45,20.61,45,45C150.004,175.389,129.394,195.999,105.004,195.999z M302.004,195.999c-33.09,0-60-26.91-60-60    c0-33.09,26.91-60,60-60c33.09,0,60,26.91,60,60C362.004,169.089,335.094,195.999,302.004,195.999z"/>
	</g>
</g>
<g>
	<g>
		<path d="M489.354,242.094L452,264.232c0,66.563,0,123.742,0,191.536l37.354,22.137C499.347,483.802,512,476.603,512,465V255    C512,243.363,499.327,236.192,489.354,242.094z"/>
	</g>
</g>
<g>
</g>
<g>
</g>
<g>
</g>
<g>
</g>
<g>
</g>
<g>
</g>
<g>
</g>
<g>
</g>
<g>
</g>
<g>
</g>
<g>
</g>
<g>
</g>
<g>
</g>
<g>
</g>
<g>
</g>
</svg>
