<?xml version="1.0" encoding="iso-8859-1"?>
<!-- Generator: Adobe Illustrator 19.0.0, SVG Export Plug-In . SVG Version: 6.00 Build 0)  -->
<svg xmlns="http://www.w3.org/2000/svg" xmlns:xlink="http://www.w3.org/1999/xlink" version="1.1" id="Capa_1" x="0px" y="0px" viewBox="0 0 512 512" style="enable-background:new 0 0 512 512;" xml:space="preserve">
<g>
	<g>
		<path d="M75,120.199c-41.36,0-75,33.45-75,74.8v60c0,39.92,33.03,75,75,75h135v-209.8H75z M165,270.199H75    c-8.29,0-15-6.91-15-15.2c0-8.29,6.71-15,15-15h90c8.29,0,15,6.71,15,15C180,263.289,173.29,270.199,165,270.199z M165,210.199H75    c-8.29,0-15-6.91-15-15.2c0-8.29,6.71-15,15-15h90c8.29,0,15,6.71,15,15C180,203.289,173.29,210.199,165,210.199z"/>
	</g>
</g>
<g>
	<g>
		<path d="M74.996,360c-5.136,0-10.058-0.8-15-1.516V452c0,33.091,26.909,60,60,60s60-26.909,60-60v-92H74.996z"/>
	</g>
</g>
<g>
	<g>
		<path d="M467,0c-24.11,0-45,20.37-45,45v360c0,23.809,20.05,45,45,45c24.814,0,45-20.186,45-45V45C512,20.186,491.814,0,467,0z"/>
	</g>
</g>
<g>
	<g>
		<path d="M240.196,119.566v210.998C295.141,332.908,348.8,351.866,392,384.908V64.686    C347.945,98.121,293.837,117.669,240.196,119.566z"/>
	</g>
</g>
<g>
</g>
<g>
</g>
<g>
</g>
<g>
</g>
<g>
</g>
<g>
</g>
<g>
</g>
<g>
</g>
<g>
</g>
<g>
</g>
<g>
</g>
<g>
</g>
<g>
</g>
<g>
</g>
<g>
</g>
</svg>
