<?xml version="1.0" encoding="iso-8859-1"?>
<!-- Generator: Adobe Illustrator 19.0.0, SVG Export Plug-In . SVG Version: 6.00 Build 0)  -->
<svg xmlns="http://www.w3.org/2000/svg" xmlns:xlink="http://www.w3.org/1999/xlink" version="1.1" id="Capa_1" x="0px" y="0px" viewBox="0 0 512 512" style="enable-background:new 0 0 512 512;" xml:space="preserve">
<g>
	<g>
		<path d="M375.279,196.092c-11.107-16.555-35.901,0.266-24.961,16.641c17.573,26.327,13.999,55.603-0.015,76.611    c-11.094,16.606,13.947,33.105,24.961,16.641C397.545,272.601,397.545,229.461,375.279,196.092z"/>
	</g>
</g>
<g>
	<g>
		<path d="M468.414,119.436c-10.925-16.422-35.992,0.095-24.961,16.641c53.186,79.838,50.212,154.575,0,229.893    c-11.095,16.642,14.014,33.088,24.961,16.64C528.876,291.916,524.134,203.077,468.414,119.436z"/>
	</g>
</g>
<g>
	<g>
		<path d="M418.477,152.703c-11.037-16.555-35.908,0.22-24.961,16.641c36.307,54.5,40.204,103.009,0,163.359    c-11.094,16.642,14.015,33.088,24.961,16.641C466.543,277.192,459.338,214.04,418.477,152.703z"/>
	</g>
</g>
<g>
	<g>
		<path d="M45,116.024c-24.814,0-45,20.186-45,45V350.97c0,24.814,20.186,45,45,45h75V116.024H45z"/>
	</g>
</g>
<g>
	<g>
		<path d="M256.187,10.496L150,98.988v314.016l106.201,88.493C285.419,525.871,330,505.133,330,466.912V45.081    C330,6.992,285.61-13.918,256.187,10.496z"/>
	</g>
</g>
<g>
</g>
<g>
</g>
<g>
</g>
<g>
</g>
<g>
</g>
<g>
</g>
<g>
</g>
<g>
</g>
<g>
</g>
<g>
</g>
<g>
</g>
<g>
</g>
<g>
</g>
<g>
</g>
<g>
</g>
</svg>
