<?xml version="1.0" encoding="iso-8859-1"?>
<!-- Generator: Adobe Illustrator 19.0.0, SVG Export Plug-In . SVG Version: 6.00 Build 0)  -->
<svg xmlns="http://www.w3.org/2000/svg" xmlns:xlink="http://www.w3.org/1999/xlink" version="1.1" id="Capa_1" x="0px" y="0px" viewBox="0 0 512 512" style="enable-background:new 0 0 512 512;" xml:space="preserve">
<g>
	<g>
		<path d="M491.972,0h-15c-33.091,0-60,26.909-60,60c0,16.538-13.462,30-30,30c-16.538,0-30-13.462-30-30c0-33.091-26.909-60-60-60    s-60,26.909-60,60v60h-15c-8.291,0-15,6.709-15,15v12.489c31.365,1.989,58.338,2.013,90,0.008V135c0-8.291-6.709-15-15-15h-15V60    c0-16.538,13.462-30,30-30c16.538,0,30,13.462,30,30c0,33.091,26.909,60,60,60s60-26.909,60-60c0-16.538,13.462-30,30-30h15    c8.291,0,15-6.709,15-15S500.263,0,491.972,0z"/>
	</g>
</g>
<g>
	<g>
		<path d="M331.301,360.991c-16.538,0-30,13.462-30,30c0,16.538,13.462,30,30,30c16.538,0,30-13.462,30-30    C361.301,374.453,347.839,360.991,331.301,360.991z"/>
	</g>
</g>
<g>
	<g>
		<path d="M511.555,362.97c-2.52-65.27-16.13-134.18-27.67-165.88c-0.03-0.1-1.06-2.78-1.1-2.89    c-11.1-28.55-43.92-43.43-74.52-33.89c0,0-0.02,0.02-0.04,0.03c-0.31,0.09-0.71,0.16-1.02,0.25    c-82.19,25.27-226.27,24.11-304.79,0.31c-0.32-0.09-0.73-0.16-1.04-0.26l-0.04-0.02c-29.61-9.04-61.27,5.68-72.1,33.53    c-0.05,0.13-1.07,2.81-1.12,2.94c-11.54,31.7-25.15,100.61-27.67,165.88c-3.25,84.58,12.5,133.8,46.8,146.28    c29.21,10.7,66.38-9.93,113.12-62.11c-22.95-8.43-39.46-30.3-39.46-56.15c0-33.09,26.91-60,60-60c33.09,0,60.2,26.91,60.2,60    c0,0.27-0.08,0.52-0.08,0.79c16.96-2.41,13.2-2.43,30.16,0.01c-0.47-34.36,27.35-60.8,59.92-60.8c33.09,0,60,26.91,60,60    c0,25.87-16.54,47.76-39.53,56.17c19.37,21.63,37.09,37.83,53.28,48.64c16.2,10.8,30.86,16.2,44.11,16.2    c5.51,0,10.76-0.92,15.79-2.75C499.065,496.77,514.805,447.55,511.555,362.97z M135.905,301.19h-14.8v14.8c0,8.29-6.91,15-15.2,15    c-8.29,0-15-6.71-15-15v-14.8h-15c-8.29,0-15-6.91-15-15.2c0-8.29,6.71-15,15-15h15v-15c0-8.29,6.71-15,15-15    c8.29,0,15.2,6.71,15.2,15v15h14.8c8.29,0,15,6.71,15,15C150.905,294.28,144.195,301.19,135.905,301.19z M226.105,301.19h-30    c-8.29,0-15.2-6.91-15.2-15.2c0-8.29,6.91-15,15.2-15h30c8.29,0,15,6.71,15,15C241.105,294.28,234.395,301.19,226.105,301.19z     M406.105,240.99c8.28,0,15,6.72,15,15c0,8.28-6.72,15-15,15c-8.29,0-15-6.72-15-15S397.815,240.99,406.105,240.99z     M316.105,301.19h-30c-8.29,0-15-6.91-15-15.2c0-8.29,6.71-15,15-15h30c8.29,0,15,6.71,15,15    C331.105,294.28,324.395,301.19,316.105,301.19z M376.105,300.99c-8.29,0-15-6.72-15-15c0-8.28,6.71-15,15-15    c8.28,0,15,6.72,15,15C391.105,294.27,384.385,300.99,376.105,300.99z M406.105,330.99c-8.29,0-15-6.72-15-15    c0-8.28,6.71-15,15-15c8.28,0,15,6.72,15,15C421.105,324.27,414.385,330.99,406.105,330.99z M436.105,300.99    c-8.29,0-15-6.72-15-15c0-8.28,6.71-15,15-15c8.28,0,15,6.72,15,15C451.105,294.27,444.385,300.99,436.105,300.99z"/>
	</g>
</g>
<g>
	<g>
		<path d="M181.101,360.991c-16.538,0-30,13.462-30,30c0,16.538,13.462,30,30,30c16.538,0,30.2-13.462,30.2-30    C211.301,374.453,197.639,360.991,181.101,360.991z"/>
	</g>
</g>
<g>
</g>
<g>
</g>
<g>
</g>
<g>
</g>
<g>
</g>
<g>
</g>
<g>
</g>
<g>
</g>
<g>
</g>
<g>
</g>
<g>
</g>
<g>
</g>
<g>
</g>
<g>
</g>
<g>
</g>
</svg>
