<?xml version="1.0" encoding="iso-8859-1"?>
<!-- Generator: Adobe Illustrator 19.0.0, SVG Export Plug-In . SVG Version: 6.00 Build 0)  -->
<svg xmlns="http://www.w3.org/2000/svg" xmlns:xlink="http://www.w3.org/1999/xlink" version="1.1" id="Capa_1" x="0px" y="0px" viewBox="0 0 512 512" style="enable-background:new 0 0 512 512;" xml:space="preserve">
<g>
	<g>
		<path d="M256.046,302.001c-8.276,0-15,6.724-15,15s6.724,15,15,15c8.276,0,15-6.724,15-15S264.323,302.001,256.046,302.001z"/>
	</g>
</g>
<g>
	<g>
		<path d="M406.05,212h-300c-23.8,0-45,19.86-45,45v60c0,107.52,87.48,195,195,195s194.4-87.48,194.4-195    C450.45,268.33,458.93,212,406.05,212z M271.05,359.24V407c0,8.29-6.71,15-15,15c-8.29,0-15-6.71-15-15v-47.76    c-17.43-6.21-30-22.71-30-42.24c0-24.81,20.18-45,45-45c24.81,0,45,20.19,45,45C301.05,336.53,288.47,353.03,271.05,359.24z"/>
	</g>
</g>
<g>
	<g>
		<path d="M255.924,0c-90.981,0-164.8,74.019-164.8,165v15c52.701,0,37.195,0,89.8,0v-15c0-41.353,33.647-75,75-75    c41.353,0,75,33.647,75,75v15c52.605,0,37.298,0,90,0v-15C420.924,74.019,346.905,0,255.924,0z"/>
	</g>
</g>
<g>
</g>
<g>
</g>
<g>
</g>
<g>
</g>
<g>
</g>
<g>
</g>
<g>
</g>
<g>
</g>
<g>
</g>
<g>
</g>
<g>
</g>
<g>
</g>
<g>
</g>
<g>
</g>
<g>
</g>
</svg>
