<svg viewBox="1 -93 511.99998 511" xmlns="http://www.w3.org/2000/svg"><path d="m425.089844 136.5625c.054687-1.582031.082031-2.917969.082031-4.195312 0-72.710938-59.15625-131.867188-131.871094-131.867188-52.328125 0-99.363281 30.652344-120.539062 78.304688-11.605469-9.890626-26.273438-15.308594-41.585938-15.308594-35.347656 0-64.117187 28.703125-64.214843 64.019531-40.109376 14.535156-66.960938 52.742187-66.960938 95.5 0 55.257813 43.257812 99.847656 98.480469 101.515625l.386719.007812c4.011718.019532 86.363281.019532 166.003906.019532 93.480468 0 153.636718-.011719 155.703125-.019532l.664062-.007812c50.894531-1.816406 90.761719-43.144531 90.761719-94.085938 0-49.265624-38.027344-90.15625-86.910156-93.882812zm0 0"/></svg>