<svg viewBox="1 0 511.99998 511" xmlns="http://www.w3.org/2000/svg"><path d="m240.980469 241.324219v-76.792969h-74.015625c-8.542969 25.734375-13.535156 51.390625-14.914063 76.792969zm0 0"/><path d="m178.546875 134.492188h62.433594v-99.664063c-18.203125 21.707031-34.117188 44.894531-47.351563 69.054687-5.582031 10.195313-10.605468 20.402344-15.082031 30.609376zm0 0"/><path d="m122.035156 271.359375h-121.972656c1.554688 26.226563 7.035156 51.703125 16.175781 75.746094h119.074219c-6.988281-23.515625-11.882812-48.925781-13.277344-75.746094zm0 0"/><path d="m381.097656 347.105469h114.664063c9.140625-24.042969 14.621093-49.519531 16.175781-75.746094h-118.710938c-.871093 25.132813-4.933593 50.429687-12.128906 75.746094zm0 0"/><path d="m362.636719 241.324219c-1.855469-25.398438-7.265625-51.054688-16.1875-76.792969h-75.429688v76.792969zm0 0"/><path d="m135.457031 164.53125h-119.199219c-9.269531 24.363281-14.78125 50.195312-16.257812 76.792969h121.976562c1.242188-25.488281 5.75-51.132813 13.480469-76.792969zm0 0"/><path d="m240.980469 271.359375h-88.871094c1.441406 25.042969 6.347656 50.347656 14.679687 75.746094h74.191407zm0 0"/><path d="m271.019531 35.339844v99.152344h63.4375c-4.105469-9.089844-8.636719-18.183594-13.609375-27.269532-19.636718-35.894531-40.539062-61.339844-49.828125-71.882812zm0 0"/><path d="m290.09375 11.625c11.046875 12.027344 50.3125 57.488281 77.125 122.867188h114.796875c-11.734375-21.785157-26.710937-41.980469-44.699219-59.964844-42.835937-42.835938-98.15625-68.632813-157.753906-74.027344 5.714844 6.027344 10.070312 10.621094 10.53125 11.125zm0 0"/><path d="m224.925781 505.273438c-11.34375-12.347657-52.425781-59.929688-79.238281-128.128907h-115.726562c11.734374 21.800781 26.722656 42.011719 44.722656 60.011719 42.332031 42.328125 96.855468 68.035156 155.648437 73.839844-3.035156-3.203125-5.097656-5.386719-5.40625-5.722656zm0 0"/><path d="m145.976562 134.492188c6.007813-15.039063 13.105469-30.0625 21.308594-45.039063 15.6875-28.632813 34.847656-55.980469 56.957032-81.273437l.652343-.746094c2.113281-2.425782 4.082031-4.683594 5.925781-6.792969-58.984374 5.710937-113.6875 31.441406-156.132812 73.886719-17.988281 17.988281-32.96875 38.183594-44.703125 59.964844zm0 0"/><path d="m371.09375 377.144531c-6.417969 16.796875-14.203125 33.582031-23.363281 50.300781-15.683594 28.636719-34.84375 55.980469-56.953125 81.273438l-.65625.75c-.179688.207031-.347656.402344-.527344.605469 55.757812-7.25 107.300781-32.5 147.722656-72.917969 18-18 32.988282-38.210938 44.722656-60.011719zm0 0"/><path d="m338.730469 377.144531h-67.710938v108.488281c19.472657-22.722656 36.40625-47.132812 50.367188-72.617187 6.546875-11.949219 12.320312-23.910156 17.34375-35.871094zm0 0"/><path d="m378.09375 164.53125c7.460938 23.753906 12.84375 49.523438 14.644531 76.792969h119.261719c-1.476562-26.597657-6.988281-52.429688-16.257812-76.792969zm0 0"/><path d="m240.980469 478.074219v-100.929688h-62.75c4.699219 10.84375 10.007812 21.695313 15.9375 32.535157 17.738281 32.414062 36.5 56.304687 46.8125 68.394531zm0 0"/><path d="m271.019531 271.359375v75.746094h78.730469c7.957031-25.390625 12.445312-50.699219 13.410156-75.746094zm0 0"/></svg>