<svg viewBox="0 -45 512.00058 512" xmlns="http://www.w3.org/2000/svg"><path d="m504.839844 48.585938c-1.992188-1.992188-4.359375-3.601563-6.941406-4.785157 1.730468-3.667969 3.285156-7.410156 4.65625-11.226562 3.605468-9.320313 1.722656-18.910157-5.078126-25.710938-6.941406-6.9374998-17.816406-8.832031-26.640624-4.691406-18.859376 8.082031-37.035157 15.726563-52.121094 20.664063-17.585938-9.4375-46.664063-22.820313-70.105469-22.820313h-.210937c-32.128907.453125-62.242188 13.726563-84.792969 37.375-18.953125 19.871094-30.695313 45.125-33.855469 72.292969-70.777344-15.554688-111.714844-38.289063-157.417969-86.203125l-5.78125-5.789063c-4.011719-4.015625-9.746093-5.867187-15.355469-4.960937-5.601562.90625-10.460937 4.476562-13.007812 9.558593l-3.175781 6.355469c-13.726563 26.304688-18.039063 53.289063-12.8125 80.210938 1.882812 9.714843 5.058593 19.375 9.425781 28.78125-4.050781.09375-8.085938 1.195312-11.800781 3.328125-8.855469 4.789062-13.6875 15.902344-11.527344 26.710937l.136719.675781.199218.664063c6.367188 21.371094 17.726563 41.578125 33.109376 59.339844-2.617188.832031-5.089844 2.074219-7.277344 3.71875-8.867188 6.648437-12.1875 17.808593-8.339844 27.871093 11.441406 32.265626 30.671875 54.554688 58.355469 67.433594-17.355469 5.054688-36.480469 7.660156-58.339844 8.039063-10.621094.0625-20.421875 6.796875-24.421875 16.800781l-.300781.824219c-3.296875 9.882812-.78125 19.953125 6.894531 27.636719l.570312.570312.628907.503906c32.308593 26.027344 99.851562 40.953125 185.304687 40.953125 150.703125 0 273.664063-131.792969 276.730469-295.074219 18.363281-11.90625 32.242187-30.875 39.472656-54.164062l.226563-.816406c2.144531-8.585938-.371094-18.03125-6.40625-24.066406zm0 0"/></svg>