<svg viewBox="-36 1 511 511.999" xmlns="http://www.w3.org/2000/svg"><path d="m191.28125 159.613281-39.53125-83.351562c-4.917969-10.375-15.515625-17.078125-27-17.078125h-54.003906c-10.289063 0-19.71875 5.1875-25.230469 13.871094-5.511719 8.6875-6.1875 19.429687-1.804687 28.738281l33.152343 70.441406-72.34375 125.898437c-5.375 9.355469-5.359375 20.519532.046875 29.855469 5.40625 9.339844 15.074219 14.917969 25.863282 14.917969h52.355468c10.621094 0 20.527344-5.710938 25.855469-14.898438l81.496094-140.605468c4.933593-8.511719 5.363281-18.898438 1.144531-27.789063zm0 0"/><path d="m435.238281 14.769531c-5.421875-9.25-15.058593-14.769531-25.78125-14.769531h-53.476562c-10.804688 0-20.796875 5.855469-26.074219 15.285156l-147.386719 263.222656c-8.558593 15.296876-8.386719 34.199219.453125 49.332032l98.90625 169.347656c5.335938 9.136719 15.226563 14.8125 25.804688 14.8125h52.308594c10.820312 0 20.5-5.597656 25.898437-14.976562 5.398437-9.375 5.375-20.558594-.058594-29.914063l-95.140625-163.816406 144.84375-258.816407c5.234375-9.355468 5.125-20.460937-.296875-29.707031zm0 0"/></svg>