<svg viewBox="0 -46 512.00001 512" xmlns="http://www.w3.org/2000/svg"><path d="m270.996094 331.664062v51.710938c8.753906-10.925781 21.8125-28.808594 34.066406-51.710938zm0 0"/><path d="m338.699219 331.664062c-24.230469 50.820313-54.828125 82.929688-56.417969 84.578126-2.53125 2.628906-5.796875 4.128906-9.167969 4.5 63.109375-5.078126 119.957031-38.035157 155.726563-89.078126zm0 0"/><path d="m270.996094 36.847656v52.070313h34.457031c-12.386719-23.191407-25.632813-41.164063-34.457031-52.070313zm0 0"/><path d="m229.890625 4.476562c2.085937-2.136718 4.335937-3.855468 7.054687-4.476562-62.335937 5.597656-118.386718 38.398438-153.804687 88.917969h89.96875c24.3125-50.820313 55.171875-82.789063 56.78125-84.441407zm0 0"/><path d="m173.359375 331.664062h-90.207031c35.625 50.773438 92.136718 83.671876 154.824218 89-3.019531-.53125-5.847656-2.203124-8.148437-4.582031-1.589844-1.648437-32.21875-33.6875-56.46875-84.417969zm0 0"/><path d="m339.050781 88.917969h89.796875c-35.40625-50.511719-91.4375-83.308594-153.765625-88.9062502 2.628907.6367192 5.121094 1.9882812 7.148438 4.0781252 1.609375 1.65625 32.527343 33.785156 56.820312 84.828125zm0 0"/><path d="m241.003906 88.917969v-51.53125c-8.796875 10.867187-21.921875 28.671875-34.214844 51.53125zm0 0"/><path d="m241.003906 383.15625v-51.492188h-34.007812c12.246094 22.832032 25.261718 40.605469 34.007812 51.492188zm0 0"/><path d="m473.664062 118.90625h-435.316406c-21.144531 0-38.347656 17.195312-38.347656 38.339844v106.089844c0 21.144531 17.203125 38.339843 38.347656 38.339843h435.316406c21.140626 0 38.335938-17.195312 38.335938-38.339843v-106.089844c0-21.144532-17.195312-38.339844-38.335938-38.339844zm-30.828124 64.058594-25.992188 64.976562c-1.238281 3.039063-4.609375 4.558594-10.125 4.558594-6.070312 0-9.679688-1.519531-10.796875-4.558594l-11.136719-29.359375-11.148437 29.359375c-1.117188 3.039063-4.777344 4.558594-10.964844 4.558594-5.398437 0-8.726563-1.519531-9.957031-4.558594l-25.988282-64.976562c-.570312-1.457032-.851562-2.636719-.851562-3.539063 0-2.816406 1.941406-5.257812 5.828125-7.347656 3.878906-2.078125 7.675781-3.117187 11.386719-3.117187 3.9375 0 6.355468 1.347656 7.257812 4.046874l15.023438 42.867188 10.808594-36.277344c1.007812-3.378906 3.875-5.070312 8.605468-5.070312 4.71875 0 7.585938 1.691406 8.605469 5.070312l10.796875 36.277344 15.023438-42.867188c.902343-2.699218 3.261718-4.046874 7.089843-4.046874 3.707031 0 7.507813 1.070312 11.386719 3.207031 3.886719 2.140625 5.828125 4.667969 5.828125 7.589843 0 1.238282-.230469 2.308594-.679687 3.207032zm-175.519532 64.976562-11.136718-29.359375-11.144532 29.359375c-1.121094 3.039063-4.78125 4.558594-10.96875 4.558594-5.398437 0-8.726562-1.519531-9.957031-4.558594l-25.988281-64.976562c-.570313-1.457032-.851563-2.636719-.851563-3.539063 0-2.816406 1.941407-5.257812 5.828125-7.347656 3.878906-2.078125 7.679688-3.117187 11.386719-3.117187 3.9375 0 6.359375 1.347656 7.257813 4.046874l15.023437 42.867188 10.808594-36.277344c1.007812-3.378906 3.878906-5.070312 8.605469-5.070312 4.71875 0 7.585937 1.691406 8.605468 5.070312l10.796875 36.277344 15.027344-42.867188c.898437-2.699218 3.257813-4.046874 7.085937-4.046874 3.707032 0 7.507813 1.070312 11.386719 3.207031 3.886719 2.140625 5.828125 4.667969 5.828125 7.589843 0 1.238282-.230468 2.308594-.679687 3.207032l-25.992188 64.976562c-1.238281 3.039063-4.609375 4.558594-10.125 4.558594-6.070312 0-9.675781-1.519531-10.796875-4.558594zm-117.808594 4.558594c-6.066406 0-9.675781-1.519531-10.796874-4.558594l-11.136719-29.359375-11.144531 29.359375c-1.121094 3.039063-4.777344 4.558594-10.964844 4.558594-5.398438 0-8.730469-1.519531-9.957032-4.558594l-25.992187-64.976562c-.570313-1.457032-.851563-2.636719-.851563-3.539063 0-2.816406 1.941407-5.257812 5.828126-7.347656 3.878906-2.078125 7.679687-3.117187 11.386718-3.117187 3.941406 0 6.359375 1.347656 7.257813 4.046874l15.023437 42.867188 10.808594-36.277344c1.007812-3.378906 3.878906-5.070312 8.605469-5.070312 4.71875 0 7.589843 1.691406 8.609375 5.070312l10.792968 36.277344 15.027344-42.867188c.898438-2.699218 3.257813-4.046874 7.085938-4.046874 3.710937 0 7.507812 1.070312 11.386718 3.207031 3.886719 2.140625 5.828126 4.667969 5.828126 7.589843 0 1.238282-.230469 2.308594-.679688 3.207032l-25.992188 64.976562c-1.238281 3.039063-4.605468 4.558594-10.125 4.558594zm0 0"/></svg>