<svg viewBox="-26 1 511 511.99994" xmlns="http://www.w3.org/2000/svg"><path d="m458.855469 266.234375c-.675781-15.714844-7.1875-29.886719-17.109375-39.78125 9.375-9.199219 14.359375-21.648437 13.8125-35.96875-.179688-14.351563-4.582032-25.820313-13.085938-34.089844-3.285156-3.195312-6.960937-5.667969-10.84375-7.585937 6.574219-8.695313 10.125-19.277344 10.125-30.484375 0-15.289063-5.785156-29.238281-16.289062-39.273438-8.566406-8.183593-19.761719-13.308593-31.636719-14.648437 1.847656-5.109375 2.703125-10.675782 2.472656-16.53125-.023437-2.332032-.25-6.636719-.582031-8.679688-1.527344-9.234375-5.25-16.550781-11.371094-22.367187-11.5625-11.007813-25.507812-16.824219-40.34375-16.824219 0 0-41.085937.0507812-54.332031.0507812-68.347656 0-117.324219 5.9374998-154.183594 18.7070308-7.78125 2.730469-14.632812 5.785157-20.675781 8.476563-10.695312 4.765625-19.144531 8.527344-27.90625 8.527344h-35.699219c-10.808593 0-26.460937 1.15625-37.507812 11.15625-5.664063 5.125-13.199219 14.539062-13.199219 36.980469l.007812 163.210937c0 14.984375 4.605469 27.636719 13.3125 36.589844 6.257813 6.433593 17.828126 14.105469 37.386719 14.105469.957031 0 2.015625-.011719 3.160157-.023438 11.160156-.125 29.515624-.320312 41.390624 9.988281.726563 1.386719 1.425782 2.6875 2.0625 3.855469.425782.847656.824219 1.542969 1.125 2.070312.105469.183594.214844.363282.316407.558594.835937 1.972656 1.804687 3.691406 2.941406 5.207032 6.324219 10.585937 13.449219 20.464843 19.628906 27.210937 13.6875 14.96875 26.363281 22.710937 37.546875 29.539063 13.128906 8.019531 22.617188 13.816406 30.878906 29.945312l.574219 1.121094c12.363281 24.101562 17.480469 34.078125 20.570313 46.042968 1.054687 4.074219 1.511718 8.347657 1.367187 12.714844-.136719 2.316406-.355469 10.621094 2.722657 19.6875 5.0625 14.917969 16.816406 24.464844 32.25 26.183594l.828124.09375h.832032c16.886718 0 31.023437-4 42.023437-11.882812 16.371094-11.734376 24.671875-30.800782 24.671875-56.664063 0-46.132813-11.28125-83.042969-21.015625-106.300781l115.855469-14.546875c27.753906-1.597657 49.195312-26.738281 47.917969-56.371094zm0 0"/></svg>