<svg viewBox="0 -62 512.00099 512" xmlns="http://www.w3.org/2000/svg"><path d="m220.949219 234.609375 84.539062-45.460937-84.539062-46.257813zm0 0"/><path d="m508.234375 91.527344-.023437-.234375c-.433594-4.121094-4.75-40.78125-22.570313-59.421875-20.597656-21.929688-43.949219-24.59375-55.179687-25.871094-.929688-.109375-1.78125-.203125-2.542969-.304688l-.894531-.09375c-67.6875-4.921874-169.910157-5.5937495-170.933594-5.601562h-.179688c-1.023437.0078125-103.246094.679688-171.542968 5.601562l-.902344.09375c-.726563.097657-1.527344.1875-2.398438.289063-11.101562 1.28125-34.203125 3.949219-54.859375 26.667969-16.972656 18.449218-21.878906 54.320312-22.382812 58.351562l-.058594.523438c-.152344 1.714844-3.765625 42.539062-3.765625 83.523437v38.3125c0 40.984375 3.613281 81.808594 3.765625 83.523438l.027344.261719c.433593 4.050781 4.746093 40.035156 22.484375 58.6875 19.367187 21.199218 43.855468 24 57.027344 25.507812 2.082031.238281 3.878906.445312 5.097656.660156l1.183594.160156c39.082031 3.722657 161.617187 5.554688 166.8125 5.628907l.15625.003906.152343-.003906c1.027344-.003907 103.246094-.675781 170.933594-5.601563l.894531-.089844c.851563-.113281 1.8125-.214843 2.867188-.324218 11.042968-1.171875 34.015625-3.605469 54.390625-26.015625 16.972656-18.449219 21.878906-54.320313 22.382812-58.351563l.058594-.523437c.152344-1.714844 3.765625-42.539063 3.765625-83.523438v-38.3125c0-40.984375-3.613281-81.804687-3.765625-83.523437zm-173.558594 115.992187-113.113281 60.824219c-3.105469 1.671875-6.480469 2.503906-9.847656 2.503906-3.675782 0-7.34375-.992187-10.652344-2.964844-6.335938-3.789062-10.117188-10.457031-10.117188-17.835937v-122.71875c0-7.414063 3.804688-14.09375 10.179688-17.875 6.375-3.777344 14.066406-3.914063 20.570312-.355469l113.113282 61.894532c6.691406 3.660156 10.832031 10.675781 10.804687 18.304687-.027343 7.625-4.21875 14.609375-10.9375 18.222656zm0 0"/></svg>