<svg viewBox="0 0 512 512.00003" xmlns="http://www.w3.org/2000/svg"><path d="m283.933594 242.117188-57.828125-49.589844-92.792969 92.792968 69.894531-38.105468c3.269531-1.78125 6.875-2.652344 10.46875-2.652344 5.148438 0 10.265625 1.789062 14.316407 5.257812l57.894531 49.613282 92.90625-92.90625-70.066407 38.199218c-7.957031 4.335938-17.914062 3.285157-24.792968-2.609374zm0 0"/><path d="m511.945312 245.640625c-1.53125-66.980469-29.011718-129.398437-77.382812-175.753906-48.300781-46.289063-111.746094-71.082031-178.589844-69.839844-66.871094-1.253906-130.285156 23.554687-178.585937 69.839844-48.371094 46.355469-75.851563 108.773437-77.38281275 175.75l-.00390625.210937v.210938c.351562 68.261718 29.582031 133.15625 80.320312 178.640625v61.886719c0 12.011718 8.386719 22.476562 19.941407 24.882812 1.710937.355469 3.433593.53125 5.148437.53125 4.648438 0 9.21875-1.296875 13.242188-3.8125l49.738281-31.070312c28.050781 9.820312 57.320313 14.796874 87.078125 14.796874h.375c1.644531.03125 3.277344.046876 4.917969.046876 65.105469-.003907 126.65625-24.707032 173.800781-69.886719 48.371094-46.355469 75.851562-108.769531 77.382812-175.75l.007813-.34375zm-87.554687-42.246094-120.53125 120.53125c-9.199219 9.199219-24.144531 9.773438-34.023437 1.304688l-57.152344-48.980469-95.320313 51.96875c-3.816406 2.070312-7.945312 3.078125-12.027343 3.078125-6.441407 0-12.773438-2.507813-17.609376-7.316406-4.746093-4.71875-7.371093-11-7.394531-17.695313-.019531-6.691406 2.570313-12.992187 7.285157-17.738281l120.511718-120.511719c9.199219-9.199218 24.144532-9.773437 34.023438-1.304687l57.09375 48.960937 95.320312-51.96875c10.871094-5.925781 24.648438-2.914062 32.058594 7 7.410156 9.867188 6.449219 23.902344-2.234375 32.671875zm0 0"/></svg>