<svg viewBox="0 0 511 511.9982" xmlns="http://www.w3.org/2000/svg"><path d="m512.441406 245.640625c-1.527344-66.980469-29.011718-129.398437-77.378906-175.753906-48.300781-46.285157-111.730469-71.078125-178.589844-69.839844-66.882812-1.253906-130.289062 23.554687-178.585937 69.839844-48.371094 46.355469-75.851563 108.773437-77.382813 175.75l-.003906.210937v.210938c.351562 68.257812 29.578125 133.15625 80.320312 178.640625v61.886719c0 12.011718 8.386719 22.472656 19.9375 24.878906 1.710938.355468 3.433594.535156 5.148438.535156 4.648438 0 9.21875-1.300781 13.242188-3.8125l49.738281-31.074219c28.050781 9.824219 57.320312 14.800781 87.078125 14.800781h.375c1.648437.03125 3.277344.046876 4.921875.046876 65.105469-.003907 126.65625-24.710938 173.800781-69.886719 48.367188-46.355469 75.851562-108.773438 77.378906-175.75l.007813-.34375zm-145.964844 91.488281h-108.171874c-8.289063 0-15.011719-6.722656-15.011719-15.011718 0-8.292969 6.722656-15.015626 15.011719-15.015626h108.171874c8.292969 0 15.015626 6.722657 15.015626 15.015626 0 8.289062-6.722657 15.011718-15.015626 15.011718zm0-66.414062h-220.007812c-8.289062 0-15.011719-6.722656-15.011719-15.015625 0-8.289063 6.722657-15.011719 15.011719-15.011719h220.007812c8.292969 0 15.015626 6.722656 15.015626 15.011719 0 8.292969-6.722657 15.015625-15.015626 15.015625zm0-66.414063h-220.007812c-8.289062 0-15.011719-6.722656-15.011719-15.015625 0-8.292968 6.722657-15.011718 15.011719-15.011718h220.007812c8.292969 0 15.015626 6.71875 15.015626 15.011718 0 8.292969-6.722657 15.015625-15.015626 15.015625zm0 0"/></svg>