<svg viewBox="1 1 511 511.99999" xmlns="http://www.w3.org/2000/svg"><path d="m437.519531 74.980469c-48.351562-48.351563-112.640625-74.980469-181.019531-74.980469s-132.667969 26.628906-181.019531 74.980469c-48.351563 48.351562-74.980469 112.640625-74.980469 181.019531s26.628906 132.667969 74.980469 181.019531c48.351562 48.351563 112.640625 74.980469 181.019531 74.980469s132.667969-26.628906 181.019531-74.980469c48.351563-48.351562 74.980469-112.640625 74.980469-181.019531s-26.628906-132.667969-74.980469-181.019531zm-299.242187 121.238281c0 8.292969-6.722656 15.011719-15.015625 15.011719s-15.015625-6.71875-15.015625-15.011719c0-33.636719 27.363281-60.996094 60.996094-60.996094 33.632812 0 60.996093 27.359375 60.996093 60.996094 0 8.292969-6.71875 15.011719-15.011719 15.011719-8.292968 0-15.015624-6.71875-15.015624-15.011719 0-17.078125-13.890626-30.96875-30.96875-30.96875-17.074219 0-30.964844 13.890625-30.964844 30.96875zm209.449218 180.558594c-8.292968 0-15.015624-6.722656-15.015624-15.011719 0-40.539063-32.980469-73.519531-73.519532-73.519531-40.539062 0-73.519531 32.980468-73.519531 73.519531 0 8.289063-6.722656 15.011719-15.015625 15.011719-8.289062 0-15.011719-6.722656-15.011719-15.011719 0-57.097656 46.449219-103.550781 103.546875-103.550781s103.546875 46.453125 103.546875 103.550781c0 8.289063-6.71875 15.011719-15.011719 15.011719zm46.703126-165.546875c-8.289063 0-15.011719-6.71875-15.011719-15.011719 0-17.078125-13.894531-30.96875-30.96875-30.96875s-30.96875 13.890625-30.96875 30.96875c0 8.292969-6.722657 15.011719-15.015625 15.011719-8.289063 0-15.011719-6.71875-15.011719-15.011719 0-33.636719 27.363281-60.996094 60.996094-60.996094 33.632812 0 60.996093 27.359375 60.996093 60.996094 0 8.292969-6.722656 15.011719-15.015624 15.011719zm0 0"/></svg>