<svg viewBox="-53 1 511 511.99999" xmlns="http://www.w3.org/2000/svg"><path d="m283.996094 8.34375v112.839844h112.839844zm0 0"/><path d="m268.980469 151.210938c-8.289063 0-15.011719-6.722657-15.011719-15.015626v-136.195312h-235.269531c-10.035157 0-18.199219 8.164062-18.199219 18.203125v475.59375c0 10.039063 8.164062 18.203125 18.203125 18.203125h367.660156c10.035157 0 18.203125-8.164062 18.203125-18.203125v-342.585937zm-176.714844 238.765624c-.050781.492188-.121094.984376-.21875 1.464844-.101563.480469-.222656.960938-.363281 1.417969-.140625.472656-.308594.941406-.5 1.394531-.179688.449219-.398438.890625-.621094 1.320313-.226562.441406-.488281.859375-.757812 1.269531-.273438.402344-.5625.800781-.871094 1.183594-.3125.378906-.652344.75-.992188 1.101562-.351562.339844-.722656.679688-1.101562.988282-.378906.3125-.769532.601562-1.179688.871093s-.832031.519531-1.261718.75c-.433594.230469-.882813.441407-1.332032.632813-.449218.191406-.921875.351562-1.382812.5-.46875.140625-.949219.261718-1.429688.359375-.480468.089843-.972656.171875-1.453125.222656-.488281.039063-.992187.070313-1.480469.070313-.488281 0-.980468-.03125-1.472656-.070313-.488281-.050781-.980468-.132813-1.460937-.222656-.480469-.097657-.960938-.21875-1.421875-.359375-.46875-.148438-.9375-.308594-1.390625-.5s-.890625-.402344-1.320313-.632813c-.429687-.230469-.859375-.480469-1.261718-.75-.410157-.269531-.8125-.558593-1.191407-.871093-.378906-.308594-.75-.648438-1.089843-.988282-.351563-.351562-.683594-.722656-1.003907-1.101562-.296875-.382813-.597656-.78125-.867187-1.183594-.273438-.410156-.523438-.828125-.753906-1.269531-.226563-.429688-.4375-.871094-.628907-1.320313-.191406-.453125-.351562-.921875-.492187-1.394531-.148438-.457031-.269532-.9375-.359375-1.417969-.101563-.480468-.179688-.972656-.21875-1.464844-.050781-.480468-.082031-.980468-.082031-1.46875 0-.492187.03125-.992187.082031-1.480468.039062-.480469.117187-.972656.21875-1.453125.089843-.480469.210937-.960938.359375-1.429688.140625-.460937.300781-.933593.492187-1.382812.191407-.449219.398438-.902344.628907-1.332031.230468-.429688.480468-.851563.753906-1.261719.269531-.410157.570312-.800781.867187-1.179688.320313-.378906.652344-.75 1.003907-1.101562.339843-.339844.710937-.679688 1.089843-.992188.382813-.308593.78125-.597656 1.191407-.871093.398437-.269532.832031-.527344 1.261718-.757813.429688-.222656.871094-.441406 1.320313-.621094.449219-.191406.921875-.359375 1.390625-.5.460937-.140625.941406-.261719 1.421875-.363281.480469-.089844.972656-.167969 1.460937-.21875.980469-.101562 1.972656-.101562 2.953125 0 .480469.050781.972657.128906 1.453125.21875.476563.101562.960938.222656 1.429688.363281.460937.140625.933594.308594 1.382812.5.449219.179688.898438.398438 1.332032.621094.429687.230469.851562.488281 1.261718.757813.410156.273437.800782.5625 1.179688.871093.378906.3125.75.652344 1.101562.992188.339844.351562.679688.722656.992188 1.101562.308594.378907.597656.769531.871094 1.179688.269531.410156.527343.832031.757812 1.261719.222656.429687.441406.882812.621094 1.332031.191406.449219.359375.921875.5 1.382812.140625.46875.261718.949219.363281 1.429688.097656.480469.167969.972656.21875 1.453125.050781.488281.070313.988281.070313 1.480468 0 .488282-.019532.988282-.070313 1.46875zm0-68.855468c-.050781.480468-.121094.972656-.21875 1.453125-.101563.480469-.222656.960937-.363281 1.429687-.140625.460938-.308594.933594-.5 1.382813-.179688.449219-.398438.890625-.621094 1.332031-.226562.429688-.488281.851562-.757812 1.261719-.273438.398437-.5625.800781-.871094 1.179687-.3125.378906-.652344.75-.992188 1.101563-.351562.339843-.722656.679687-1.101562.992187-.378906.308594-.769532.597656-1.179688.867188-.410156.273437-.832031.523437-1.261718.753906-.433594.230469-.882813.4375-1.332032.628906-.449218.191406-.921875.351563-1.382812.5-.46875.140625-.949219.261719-1.429688.359375-.480468.089844-.972656.171875-1.453125.210938-.488281.050781-.992187.082031-1.480469.082031-.488281 0-.980468-.03125-1.472656-.082031-.488281-.039063-.980468-.121094-1.460937-.210938-.480469-.097656-.960938-.21875-1.421875-.359375-.46875-.148437-.9375-.308594-1.390625-.5s-.890625-.398437-1.320313-.628906c-.429687-.230469-.859375-.480469-1.261718-.753906-.410157-.269532-.8125-.558594-1.191407-.867188-.378906-.3125-.75-.652344-1.089843-.992187-.351563-.351563-.683594-.722657-1.003907-1.101563-.296875-.378906-.597656-.78125-.867187-1.179687-.273438-.410157-.523438-.832031-.753906-1.261719-.226563-.441406-.4375-.882812-.628907-1.332031-.191406-.449219-.351562-.921875-.492187-1.382813-.148438-.46875-.269532-.949218-.359375-1.429687-.101563-.480469-.179688-.972657-.21875-1.453125-.050781-.488282-.082031-.988282-.082031-1.480469s.03125-.980469.082031-1.472656c.039062-.488281.117187-.980469.21875-1.460938.089843-.480469.210937-.960937.359375-1.421875.140625-.46875.300781-.941406.492187-1.390625.191407-.449219.398438-.890625.628907-1.320312.230468-.441407.480468-.859375.753906-1.269531.269531-.402344.570312-.800782.867187-1.183594.320313-.378906.652344-.75 1.003907-1.101563.339843-.339843.710937-.679687 1.089843-.988281.382813-.3125.78125-.601562 1.191407-.871094.398437-.273437.832031-.523437 1.261718-.753906.429688-.226562.871094-.4375 1.320313-.628906s.921875-.351563 1.390625-.5c.460937-.140625.941406-.261719 1.421875-.359375.480469-.089844.972656-.171875 1.460937-.222657.980469-.089843 1.972656-.089843 2.953125 0 .480469.050782.972657.132813 1.453125.222657.476563.097656.960938.21875 1.429688.359375.460937.148437.933594.308594 1.382812.5.449219.191406.898438.402344 1.332032.628906.429687.230469.851562.480469 1.261718.753906.410156.269532.800782.558594 1.179688.871094.378906.308594.75.648438 1.101562.988281.339844.351563.679688.722657.992188 1.101563.308594.382812.597656.78125.871094 1.183594.269531.410156.527343.828124.757812 1.269531.222656.429687.441406.871093.621094 1.320312.191406.449219.359375.921875.5 1.390625.140625.460938.261718.941406.363281 1.421875.097656.480469.167969.972657.21875 1.460938.050781.492187.070313.980469.070313 1.472656s-.019532.992187-.070313 1.480469zm0-68.863282c-.050781.480469-.121094.96875-.21875 1.449219-.101563.480469-.222656.960938-.363281 1.429688-.140625.460937-.308594.933593-.5 1.382812-.179688.449219-.398438.902344-.621094 1.332031-.226562.429688-.488281.851563-.757812 1.261719-.273438.398438-.5625.800781-.871094 1.179688-.3125.382812-.652344.75-.992188 1.101562-.351562.339844-.722656.679688-1.101562.992188-.378906.308593-.769532.597656-1.179688.871093-.410156.269532-.832031.527344-1.261718.757813-.433594.222656-.882813.441406-1.332032.621094-.449218.191406-.921875.363281-1.382812.5-.46875.140625-.949219.261719-1.429688.363281-.480468.089844-.972656.167969-1.453125.21875-.488281.050781-.992187.070312-1.480469.070312-.488281 0-.980468-.019531-1.472656-.070312-.488281-.050781-.980468-.128906-1.460937-.21875-.480469-.101562-.960938-.222656-1.421875-.363281-.46875-.136719-.9375-.308594-1.390625-.5-.449219-.179688-.890625-.398438-1.320313-.621094-.429687-.230469-.859375-.488281-1.261718-.757813-.410157-.273437-.8125-.5625-1.191407-.871093-.378906-.3125-.75-.652344-1.089843-.992188-.351563-.351562-.683594-.71875-1.003907-1.101562-.296875-.378907-.597656-.769531-.867187-1.179688-.273438-.410156-.523438-.832031-.753906-1.261719-.226563-.429687-.4375-.882812-.628907-1.332031-.191406-.449219-.351562-.921875-.492187-1.382812-.148438-.46875-.269532-.949219-.359375-1.429688-.101563-.480469-.179688-.96875-.21875-1.449219-.050781-.492187-.082031-.992187-.082031-1.484374 0-.488282.03125-.988282.082031-1.46875.039062-.492188.117187-.984376.21875-1.464844.089843-.480469.210937-.960938.359375-1.417969.140625-.472656.300781-.941406.492187-1.394531.191407-.449219.398438-.890625.628907-1.320313.230468-.441406.480468-.859375.753906-1.269531.269531-.402344.570312-.800781.867187-1.183594.320313-.378906.652344-.75 1.003907-1.101562.339843-.339844.710937-.679688 1.089843-.988282.382813-.3125.78125-.601562 1.191407-.871093.398437-.269531.832031-.519531 1.261718-.75.429688-.230469.871094-.441407 1.320313-.632813.449219-.1875.921875-.347656 1.390625-.5.460937-.140625.941406-.261718 1.421875-.359375.480469-.089843.972656-.171875 1.460937-.21875.980469-.09375 1.972656-.09375 2.953125 0 .480469.046875.972657.128907 1.453125.21875.476563.097657.960938.21875 1.429688.359375.460937.152344.933594.3125 1.382812.5.449219.191406.898438.402344 1.332032.632813.429687.230469.851562.480469 1.261718.75s.800782.558593 1.179688.871093c.378906.308594.75.648438 1.101562.988282.339844.351562.679688.722656.992188 1.101562.308594.382813.597656.78125.871094 1.183594.269531.410156.527343.828125.757812 1.269531.222656.429688.441406.871094.621094 1.320313.191406.453125.359375.921875.5 1.394531.140625.457031.261718.9375.363281 1.417969.097656.480468.167969.972656.21875 1.464844.050781.480468.070313.980468.070313 1.46875 0 .492187-.019532.992187-.070313 1.484374zm235.472656 151.261719h-191.796875c-8.292968 0-15.015625-6.722656-15.015625-15.011719 0-8.292968 6.722657-15.015624 15.015625-15.015624h191.796875c8.292969 0 15.015625 6.722656 15.015625 15.015624 0 8.289063-6.722656 15.011719-15.015625 15.011719zm0-68.863281h-191.796875c-8.292968 0-15.015625-6.722656-15.015625-15.015625s6.722657-15.015625 15.015625-15.015625h191.796875c8.292969 0 15.015625 6.722656 15.015625 15.015625s-6.722656 15.015625-15.015625 15.015625zm0-68.867188h-191.796875c-8.292968 0-15.015625-6.722656-15.015625-15.011718 0-8.292969 6.722657-15.015625 15.015625-15.015625h191.796875c8.292969 0 15.015625 6.722656 15.015625 15.015625 0 8.289062-6.722656 15.011718-15.015625 15.011718zm0 0"/></svg>