<svg viewBox="-53 1 511 511.99999" xmlns="http://www.w3.org/2000/svg"><path d="m88.015625 306.066406h43.316406v39.757813h-43.316406zm0 0"/><path d="m161.363281 306.066406h156.585938v39.757813h-156.585938zm0 0"/><path d="m268.984375 151.210938c-8.292969 0-15.015625-6.722657-15.015625-15.015626v-136.195312h-235.265625c-10.039063 0-18.203125 8.164062-18.203125 18.203125v475.59375c0 10.039063 8.164062 18.203125 18.203125 18.203125h367.660156c10.039063 0 18.203125-8.164062 18.203125-18.203125v-342.585937zm78.996094 274.429687c0 9.402344-7.652344 17.054687-17.058594 17.054687h-255.878906c-9.402344 0-17.054688-7.652343-17.054688-17.054687v-199.386719c0-9.40625 7.652344-17.058594 17.054688-17.058594h255.878906c9.40625 0 17.058594 7.652344 17.058594 17.058594zm0 0"/><path d="m161.363281 239.222656h156.585938v36.816406h-156.585938zm0 0"/><path d="m283.996094 8.34375v112.839844h112.839844zm0 0"/><path d="m161.363281 375.851562h156.585938v36.816407h-156.585938zm0 0"/><path d="m88.015625 375.851562h43.316406v36.816407h-43.316406zm0 0"/><path d="m88.015625 239.222656h43.316406v36.816406h-43.316406zm0 0"/></svg>