<svg viewBox="0 0 512 512" xmlns="http://www.w3.org/2000/svg"><path d="m319.632812 307.859375c-7.070312 7.074219-17.796874 8.777344-26.6875 4.242187-40.3125-20.558593-72.488281-52.734374-93.046874-93.046874-4.535157-8.890626-2.832032-19.613282 4.238281-26.683594l15.640625-15.640625-32.628906-32.628907-26.410157 26.414063c-4.402343 4.402344-5.945312 17.945313 4.199219 41.613281 10.710938 24.992188 30.738281 52.882813 56.394531 78.539063s53.550781 45.6875 78.539063 56.398437c23.671875 10.140625 37.210937 8.597656 41.613281 4.195313l26.410156-26.410157-32.625-32.628906zm0 0"/><path d="m439.277344 72.722656c-46.898438-46.898437-109.238282-72.722656-175.566406-72.722656-.003907 0-.019532 0-.023438 0-32.804688.00390625-64.773438 6.355469-95.011719 18.882812-30.242187 12.527344-57.335937 30.640626-80.535156 53.839844-46.894531 46.894532-72.71875 109.246094-72.71875 175.566406 0 39.550782 9.542969 78.855469 27.625 113.875l-41.734375 119.226563c-2.941406 8.410156-.859375 17.550781 5.445312 23.851563 4.410157 4.414062 10.214844 6.757812 16.183594 6.757812 2.558594 0 5.144532-.429688 7.667969-1.3125l119.226563-41.730469c35.019531 18.082031 74.324218 27.625 113.875 27.625 66.320312 0 128.667968-25.828125 175.566406-72.722656 46.894531-46.894531 72.722656-109.246094 72.722656-175.566406 0-66.324219-25.824219-128.675781-72.722656-175.570313zm-49.628906 272.84375-26.929688 26.929688c-8.097656 8.097656-19.253906 12.15625-32.757812 12.15625-12.222657 0-26.367188-3.324219-41.917969-9.988282-28.417969-12.179687-59.652344-34.46875-87.945313-62.761718-28.292968-28.292969-50.582031-59.527344-62.761718-87.945313-14.027344-32.726562-13.257813-59.25 2.167968-74.675781l26.929688-26.929688c11.421875-11.421874 30.007812-11.421874 41.429687 0l33.664063 33.664063c11.425781 11.421875 11.425781 30.007813 0 41.433594l-12.492188 12.492187c16.90625 31.019532 42.007813 56.117188 73.027344 73.023438l12.492188-12.492188c11.421874-11.425781 30.007812-11.425781 41.429687 0l33.664063 33.664063c5.535156 5.53125 8.582031 12.890625 8.582031 20.714843 0 7.824219-3.046875 15.179688-8.582031 20.714844zm0 0"/></svg>