<svg viewBox="1 0 511.99901 511" xmlns="http://www.w3.org/2000/svg"><path d="m303.933594 267.457031c-7.96875-5.386719-16.769532-10.472656-26.160156-15.113281-9.578126-4.726562-18.53125-8.683594-26.605469-11.753906-10.273438-3.90625-19.109375-9.136719-26.253907-15.542969-8.957031-8.019531-13.691406-18.21875-13.691406-29.488281 0-13.671875 5.925782-25.015625 17.136719-32.808594 9.664063-6.714844 22.730469-10.117188 38.84375-10.117188 14.019531 0 27.039063 2.804688 38.703125 8.335938 6.335938 3.011719 9.8125 4.429688 11.597656 5.082031.160156-.207031.355469-.492187.578125-.871093 1.988281-3.378907 3-6.441407 3-9.082032 0-.609375 0-1.632812-2.160156-3.472656-3.160156-2.6875-7.59375-4.769531-13.164063-6.179688-7.214843-1.820312-14.105468-3.148437-20.46875-3.9375-6.371093-.789062-12.460937-1.191406-18.085937-1.191406-9.78125 0-19.125 1.140625-27.773437 3.382813-8.34375 2.171875-16.304688 5.636719-23.652344 10.296875-6.5 4.117187-11.597656 9.832031-15.585938 17.457031-4.039062 7.71875-6.085937 16.957031-6.085937 27.457031 0 9.34375 1.660156 17.636719 4.9375 24.652344 3.25 6.976562 7.300781 12.3125 12.378906 16.324219 6.121094 4.832031 13.011719 9.257812 20.484375 13.15625 8.003906 4.175781 16.003906 7.972656 23.773438 11.28125 8.625 3.683593 16.679687 7.550781 23.945312 11.496093 8.78125 4.78125 16.027344 10.957032 21.546875 18.359376 6.191406 8.324218 9.320313 17.863281 9.320313 28.371093 0 15.367188-6.261719 27.796875-18.109376 35.9375-10.25 7.042969-22.871093 10.617188-37.507812 10.617188-10.476562 0-20.28125-1.933594-29.136719-5.742188-8.792969-3.777343-15.554687-8.035156-20.671875-13.011719-3.304687-3.207031-6.734375-6.160156-10.1875-8.769531-.8125-.613281-1.429687-1-1.859375-1.238281-.421875.324219-1.132812.976562-2.066406 2.230469-2.238281 3.003906-3.375 5.660156-3.375 7.894531 0 5.074219 6.238281 11.5625 17.113281 17.796875 14.058594 8.066406 31.429688 12.152344 51.632813 12.152344 22.394531 0 39.671875-5.4375 52.816406-16.621094 12.425781-10.574219 18.464844-25.605469 18.464844-45.960937 0-12.203126-2.34375-22.839844-6.96875-31.613282-4.605469-8.734375-10.226563-15.386718-16.703125-19.765625zm0 0"/><path d="m487.875 299.984375c2.6875-14.75 4.046875-29.375 4.046875-43.5 0-31.792969-6.261719-62.644531-18.613281-91.691406-12.308594-28.941407-29.21875-54.289063-50.265625-75.339844-21.035157-21.039063-46.386719-37.953125-75.34375-50.265625-29.042969-12.351562-59.894531-18.613281-91.695313-18.613281-14.101562 0-28.726562 1.363281-43.5 4.050781-22.972656-16.011719-48.863281-24.125-76.992187-24.125-37.230469 0-69.464844 13.355469-95.808594 39.695312-26.34375 26.335938-39.703125 58.570313-39.703125 95.804688 0 28.152344 8.113281 54.042969 24.125 76.992188-2.6875 14.753906-4.046875 29.371093-4.046875 43.496093 0 31.800781 6.261719 62.65625 18.613281 91.699219 12.308594 28.941406 29.21875 54.289062 50.265625 75.34375 21.035157 21.039062 46.386719 37.949219 75.34375 50.265625 29.042969 12.351563 59.894531 18.613281 91.695313 18.613281 14.097656 0 28.722656-1.363281 43.496094-4.050781 22.972656 16.007813 48.863281 24.125 77 24.125 37.226562 0 69.460937-13.355469 95.808593-39.695313 26.339844-26.34375 39.699219-58.578124 39.699219-95.804687 0-28.136719-8.113281-54.03125-24.125-77zm-159.277344 87.671875c-18.546875 15.78125-42.863281 23.78125-72.273437 23.78125-25.507813 0-47.90625-5.425781-66.566407-16.128906-21.363281-12.25-32.199218-27-32.199218-43.839844 0-8.835938 3.136718-17.523438 9.320312-25.824219 8.960938-12.039062 19.28125-14.566406 26.359375-14.566406 6.464844 0 13.105469 2.539063 19.742188 7.554687 4.429687 3.347657 8.804687 7.109376 13.007812 11.183594 1.667969 1.625 5.019531 4.136719 11.609375 6.964844 5.164063 2.222656 10.816406 3.300781 17.277344 3.300781 8.574219 0 15.28125-1.742187 20.503906-5.332031 2.648438-1.820312 5.09375-4.4375 5.09375-11.199219 0-4.023437-1.070312-7.339843-3.378906-10.441406-2.9375-3.941406-6.804688-7.191406-11.808594-9.914063-6.433594-3.496093-13.628906-6.945312-21.378906-10.253906-8.476562-3.613281-17.1875-7.746094-25.886719-12.28125-9.128906-4.765625-17.609375-10.21875-25.199219-16.214844-8.71875-6.878906-15.78125-16.027343-20.984374-27.191406-5.140626-11.015625-7.75-23.578125-7.75-37.34375 0-15.398437 3.199218-29.316406 9.507812-41.371094 6.402344-12.246093 15.1875-21.972656 26.109375-28.894531 9.980469-6.332031 20.808594-11.042969 32.175781-14 11.117188-2.882812 23-4.34375 35.324219-4.34375 6.855469 0 14.183594.476563 21.785156 1.414063 7.59375.945312 15.707031 2.5 24.128907 4.625 10.070312 2.550781 18.566406 6.734375 25.265624 12.429687 8.324219 7.09375 12.71875 16.195313 12.71875 26.328125 0 8.066406-2.402343 16.246094-7.148437 24.3125-6.089844 10.335938-15.574219 16.023438-26.714844 16.023438-4.320312 0-9.457031-1.332032-24.210937-8.347656-7.597656-3.601563-16.289063-5.433594-25.824219-5.433594-9.730469 0-17.238281 1.644531-21.710937 4.75-3.097657 2.152344-4.25 4.363281-4.25 8.160156 0 1.882812.4375 4.203125 3.703124 7.128906 4.394532 3.9375 10.078126 7.246094 16.894532 9.839844 8.960937 3.40625 18.792968 7.746094 29.226562 12.898438 10.609375 5.242187 20.59375 11.015624 29.679688 17.160156 10.613281 7.175781 19.507812 17.480468 26.445312 30.628906 6.925782 13.136719 10.4375 28.484375 10.4375 45.617188 0 29.277343-9.769531 52.433593-29.03125 68.820312zm0 0"/></svg>