<svg viewBox="0 -54 511.99934 511" xmlns="http://www.w3.org/2000/svg"><path d="m287.613281 283.175781c-5.507812-6.40625-13.511719-10.082031-21.960937-10.082031h-85.644532v-64.742188h20.363282c9.570312 0 18.507812-4.535156 23.910156-12.132812 7.773438-10.933594 7.085938-25.640625-1.667969-35.765625l-85.871093-99.320313c-5.503907-6.363281-13.488282-10.015624-21.902344-10.015624-8.417969 0-16.402344 3.652343-21.910156 10.019531l-85.867188 99.316406c-8.753906 10.125-9.441406 24.828125-1.671875 35.761719 5.402344 7.601562 14.34375 12.136718 23.917969 12.136718h20.363281v129.914063c0 35.933594 29.234375 65.167969 65.167969 65.167969h212.75c9.554687 0 18.488281-4.523438 23.886718-12.101563 7.777344-10.90625 7.121094-25.601562-1.59375-35.738281zm0 0"/><path d="m506.601562 207.714844c-5.402343-7.597656-14.339843-12.136719-23.914062-12.136719h-20.359375v-129.910156c0-35.933594-29.234375-65.167969-65.171875-65.167969h-212.742188c-9.554687 0-18.484374 4.523438-23.886718 12.101562-7.78125 10.90625-7.125 25.605469 1.589844 35.738282l62.269531 72.417968c5.507812 6.40625 13.511719 10.078126 21.960937 10.078126h85.644532v64.742187h-20.363282c-9.570312 0-18.507812 4.539063-23.914062 12.140625-7.769532 10.929688-7.082032 25.636719 1.671875 35.761719l85.867187 99.320312c5.507813 6.363281 13.492188 10.015625 21.90625 10.015625 8.421875 0 16.40625-3.652344 21.90625-10.019531l85.871094-99.320313c8.753906-10.125 9.4375-24.832031 1.664062-35.761718zm0 0"/></svg>