<svg viewBox="0 0 511 511.99908" xmlns="http://www.w3.org/2000/svg"><path d="m242.105469 234.125v-36.34375h-36.269531c-3.472657 11.402344-6.066407 23.582031-7.210938 36.34375zm0 0"/><path d="m168.589844 264.152344h-45.554688c1.421875 12.492187 4.550782 24.46875 9.148438 35.691406h42.515625c-2.945313-11.296875-5.101563-23.234375-6.109375-35.691406zm0 0"/><path d="m242.105469 264.152344h-43.363281c1.203124 12.527344 3.773437 24.488281 7.195312 35.691406h36.167969zm0 0"/><path d="m242.105469 167.753906v-40.695312c-7.347657 9.957031-16.472657 23.871094-24.515625 40.695312zm0 0"/><path d="m174.566406 197.785156h-42.371094c-4.683593 11.417969-7.84375 23.617188-9.230468 36.339844h45.535156c.945312-12.699219 3.09375-24.851562 6.066406-36.339844zm0 0"/><path d="m339.546875 299.847656h42.511719c4.597656-11.226562 7.726562-23.203125 9.148437-35.691406h-45.558593c-1.007813 12.453125-3.160157 24.390625-6.101563 35.691406zm0 0"/><path d="m315.632812 234.125c-1.125-12.773438-3.683593-24.949219-7.121093-36.34375h-36.375v36.34375zm0 0"/><path d="m242.105469 329.875h-24.421875c8.015625 16.804688 17.097656 30.710938 24.421875 40.675781zm0 0"/><path d="m272.136719 167.753906h24.730469c-8.097657-17.054687-17.320313-31.121094-24.730469-41.140625zm0 0"/><path d="m512.445312 245.636719c-1.527343-66.980469-29.011718-129.394531-77.382812-175.75-48.300781-46.289063-111.722656-71.078125-178.585938-69.8437502-66.855468-1.2343748-130.289062 23.5546872-178.589843 69.8437502-48.371094 46.355469-75.851563 108.769531-77.382813 175.75l-.003906.210937v.210938c.351562 68.261718 29.578125 133.15625 80.320312 178.640625v61.886719c0 12.011718 8.386719 22.476562 19.941407 24.878906 1.710937.359375 3.433593.535156 5.144531.535156 4.652344 0 9.222656-1.300781 13.246094-3.8125l49.738281-31.070312c28.046875 9.820312 57.324219 14.796874 87.082031 14.796874h.371094c1.644531.03125 3.273438.046876 4.917969.046876 65.105469-.003907 126.65625-24.710938 173.800781-69.886719 48.371094-46.355469 75.851562-108.773438 77.382812-175.75l.007813-.34375zm-90.335937 3.503906c0 .035156-.003906.066406-.003906.101563-.0625 25.53125-5.953125 49.714843-16.410157 71.292968-.265624.652344-.582031 1.273438-.929687 1.871094-25.199219 50.355469-75.402344 86.105469-134.234375 90.863281-.074219.007813-.152344.011719-.230469.019531-4.347656.34375-8.742187.527344-13.175781.527344h-.003906c-64.554688 0-120.554688-37.269531-147.648438-91.417968-.34375-.597657-.65625-1.210938-.921875-1.855469-10.457031-21.582031-16.351562-45.765625-16.414062-71.300781 0-.035157-.003907-.066407-.003907-.101563 0-.023437.003907-.042969.003907-.0625 0-.085937-.003907-.167969-.003907-.25 0-25.65625 5.886719-49.960937 16.378907-71.636719.292969-.726562.640625-1.421875 1.039062-2.082031 27.117188-54.066406 83.078125-91.269531 147.570313-91.269531 3.601562 0 7.171875.128906 10.714844.359375 1.511718-.113281 3.035156.007812 4.519531.351562 57.984375 5.335938 107.371093 40.792969 132.332031 90.546875.398438.667969.75 1.367188 1.042969 2.097656 10.488281 21.675782 16.378906 45.980469 16.378906 71.632813 0 .082031-.003906.164063-.003906.246094 0 .023437.003906.042969.003906.066406zm0 0"/><path d="m272.136719 329.875v40.78125c7.308593-10.003906 16.375-23.957031 24.386719-40.78125zm0 0"/><path d="m184.777344 329.875h-35.5c15.035156 19.957031 35.472656 35.621094 59.121094 44.808594-7.953126-12.234375-16.460938-27.378906-23.621094-44.808594zm0 0"/><path d="m329.496094 329.875c-7.125 17.398438-15.59375 32.523438-23.511719 44.753906 23.589844-9.191406 43.976563-24.835937 58.984375-44.753906zm0 0"/><path d="m184.605469 167.753906c7.132812-17.390625 15.636719-32.5 23.597656-44.707031-23.554687 9.191406-43.914063 24.816406-58.90625 44.707031zm0 0"/><path d="m272.136719 264.152344v35.691406h36.128906c3.429687-11.214844 6.007813-23.179688 7.222656-35.691406zm0 0"/><path d="m339.722656 197.785156c2.957032 11.488282 5.09375 23.644532 6.03125 36.339844h45.523438c-1.386719-12.722656-4.546875-24.921875-9.230469-36.339844zm0 0"/><path d="m329.742188 167.753906h35.203124c-14.929687-19.804687-35.183593-35.386718-58.613281-44.59375 7.914063 12.203125 16.339844 27.273438 23.410157 44.59375zm0 0"/></svg>