<svg viewBox="1 -48 511.99999 511" xmlns="http://www.w3.org/2000/svg"><path d="m260.65625 142.738281c-50.953125 0-92.402344 41.453125-92.402344 92.40625 0 50.949219 41.449219 92.402344 92.402344 92.402344s92.402344-41.453125 92.402344-92.402344c0-50.953125-41.449219-92.40625-92.402344-92.40625zm0 158.101563c-36.222656 0-65.695312-29.46875-65.695312-65.695313 0-36.222656 29.472656-65.695312 65.695312-65.695312 36.226562 0 65.695312 29.472656 65.695312 65.695312 0 36.226563-29.46875 65.695313-65.695312 65.695313zm0 0"/><path d="m260.65625 199.507812c-19.652344 0-35.636719 15.984376-35.636719 35.636719 0 19.652344 15.984375 35.636719 35.636719 35.636719s35.636719-15.984375 35.636719-35.636719c0-19.652343-15.984375-35.636719-35.636719-35.636719zm0 0"/><path d="m448.777344 72.792969h-57.832032c-1.496093 0-4.304687-2.023438-4.777343-3.441407l-14.953125-44.875c-4.566406-13.671874-18.878906-23.976562-33.285156-23.976562h-163.859376c-14.425781 0-28.742187 10.316406-33.289062 23.992188l-14.945312 44.851562c-.476563 1.417969-3.289063 3.445312-4.78125 3.445312h-57.832032c-34.859375.003907-63.222656 28.363282-63.222656 63.222657v216.875c0 34.863281 28.363281 63.226562 63.222656 63.226562h385.554688c34.859375 0 63.222656-28.363281 63.222656-63.226562v-216.875c0-34.859375-28.363281-63.21875-63.222656-63.21875zm-188.121094 284.8125c-67.523438 0-122.460938-54.9375-122.460938-122.460938 0-67.523437 54.9375-122.460937 122.460938-122.460937s122.460938 54.9375 122.460938 122.460937c0 67.523438-54.933594 122.460938-122.460938 122.460938zm179.347656-159.5c-.039062.480469-.117187.972656-.207031 1.453125-.101563.480468-.222656.960937-.363281 1.433594-.148438.460937-.308594.933593-.5 1.382812s-.402344.902344-.632813 1.332031c-.230469.429688-.480469.851563-.75 1.261719s-.570312.804688-.871093 1.183594c-.320313.378906-.652344.75-1.003907 1.101562-.339843.339844-.710937.683594-1.089843.992188-.382813.3125-.78125.601562-1.191407.871094-.402343.269531-.832031.53125-1.265625.761718-.429687.222656-.871094.441406-1.320312.621094-.460938.191406-.921875.359375-1.394532.5-.460937.140625-.941406.261719-1.421874.363281-.480469.097657-.972657.167969-1.460938.21875-.492188.050781-.984375.070313-1.472656.070313-.492188 0-.992188-.019532-1.484375-.070313-.480469-.050781-.972657-.121093-1.453125-.21875-.480469-.101562-.960938-.222656-1.433594-.363281-.460938-.140625-.929688-.308594-1.382812-.5-.449219-.179688-.898438-.398438-1.332032-.621094-.429687-.230468-.851562-.492187-1.261718-.761718-.410157-.269532-.800782-.5625-1.179688-.871094-.382812-.308594-.753906-.652344-1.105469-.992188-.339843-.351562-.679687-.722656-.992187-1.101562-.308594-.378906-.597656-.773438-.871094-1.183594-.269531-.410156-.53125-.832031-.761719-1.261719-.230469-.429687-.4375-.882812-.621093-1.332031-.1875-.449219-.359376-.921875-.5-1.382812-.140626-.472657-.261719-.953126-.359376-1.433594-.089843-.480469-.171874-.972656-.222656-1.453125-.046875-.492188-.070312-.992188-.070312-1.480469 0-.492188.023437-.984375.070312-1.476562.050782-.488282.132813-.980469.222656-1.460938.097657-.480469.21875-.960938.359376-1.421875.140624-.472656.3125-.933594.5-1.394531.183593-.449219.390624-.890625.621093-1.320313.230469-.429687.492188-.863281.761719-1.273437.273438-.402344.5625-.800782.871094-1.183594.3125-.378906.652344-.75.992187-1.101562.351563-.339844.722657-.679688 1.105469-.992188.367188-.308594.769531-.601562 1.179688-.871094.410156-.269531.832031-.519531 1.261718-.75.433594-.230468.882813-.441406 1.332032-.632812.453124-.191406.921874-.351563 1.382812-.492188.472656-.148437.953125-.269531 1.433594-.359375.480468-.101562.972656-.179687 1.453125-.21875.980469-.101562 1.972656-.101562 2.957031 0 .488281.039063.980469.117188 1.460938.21875.480468.089844.960937.210938 1.421874.359375.472657.140625.933594.300782 1.394532.492188.449218.191406.890625.402344 1.320312.632812.433594.230469.863282.480469 1.265625.75.410157.269532.808594.5625 1.191407.871094.378906.3125.75.652344 1.089843.992188.351563.351562.683594.722656 1.003907 1.101562.300781.382812.601562.78125.871093 1.183594.269531.410156.519531.839844.75 1.273437.230469.429688.441407.871094.632813 1.320313.191406.460937.351562.921875.5 1.394531.140625.460937.261718.941406.363281 1.421875.089844.480469.167969.972656.207031 1.460938.050782.492187.082032.984374.082032 1.476562 0 .488281-.03125.988281-.082032 1.480469zm0-42.078125c-.046875.480468-.117187.972656-.21875 1.453125-.089844.480469-.210937.960937-.359375 1.429687-.140625.460938-.300781.933594-.492187 1.382813-.191406.453125-.402344.902343-.632813 1.332031-.230469.433594-.480469.855469-.75 1.265625s-.570312.800781-.871093 1.183594c-.320313.378906-.652344.75-1.003907 1.101562-.339843.339844-.710937.679688-1.089843.992188-.382813.308593-.78125.601562-1.191407.871093-.402343.269532-.832031.53125-1.265625.761719-.429687.21875-.871094.441407-1.320312.621094-.460938.1875-.921875.359375-1.394532.5-.460937.140625-.941406.261719-1.421874.359375-.480469.101562-.972657.171875-1.460938.222656-.492188.050782-.984375.070313-1.472656.070313-.492188 0-.992188-.023438-1.484375-.070313-.480469-.050781-.972657-.121094-1.453125-.222656-.480469-.101562-.960938-.21875-1.433594-.359375-.460938-.140625-.929688-.3125-1.382812-.5-.449219-.179687-.898438-.402344-1.332032-.621094-.429687-.230469-.851562-.492187-1.261718-.761719-.410157-.273437-.800782-.5625-1.179688-.871093-.382812-.3125-.753906-.652344-1.105469-.992188-.347656-.351562-.679687-.722656-.992187-1.101562-.308594-.382813-.597656-.773438-.871094-1.183594-.269531-.410156-.53125-.832031-.761719-1.265625-.230469-.429688-.4375-.878906-.621093-1.332031-.1875-.449219-.359376-.921875-.5-1.382813-.140626-.46875-.261719-.949218-.359376-1.429687-.089843-.480469-.171874-.972657-.222656-1.453125-.046875-.492188-.070312-.992188-.070312-1.484375 0-.488281.023437-.980469.070312-1.472657.050782-.488281.132813-.980468.222656-1.460937.097657-.480469.21875-.964844.359376-1.425781.140624-.46875.3125-.929688.5-1.382813.183593-.457031.390624-.898437.621093-1.332031.230469-.429688.492188-.859375.761719-1.261719.273438-.410156.5625-.8125.871094-1.191406.3125-.378906.644531-.75.992187-1.09375.351563-.347656.722657-.679687 1.105469-1 .367188-.300781.769531-.601563 1.179688-.871094.410156-.269531.832031-.523437 1.261718-.753906.433594-.226563.882813-.4375 1.332032-.628906.453124-.191407.921874-.351563 1.382812-.492188.472656-.148437.953125-.269531 1.433594-.359375.480468-.101562.972656-.179687 1.453125-.222656.980469-.097656 1.972656-.097656 2.957031 0 .488281.042969.980469.121094 1.460938.222656.480468.089844.960937.210938 1.421874.359375.472657.140625.933594.300781 1.394532.492188.449218.191406.890625.398437 1.320312.628906.433594.230469.863282.484375 1.265625.753906.410157.269531.808594.570313 1.191407.871094.378906.320313.75.652344 1.089843 1 .351563.34375.683594.714844 1.003907 1.09375.300781.378906.601562.78125.871093 1.191406.269531.402344.519531.832031.75 1.261719.230469.433594.441407.875.632813 1.332031.191406.453125.351562.914063.492187 1.382813.148438.460937.269531.945312.359375 1.425781.101563.480469.171875.972656.21875 1.460937.050782.492188.082032.980469.082032 1.472657 0 .492187-.03125.992187-.082032 1.484375zm0 0"/></svg>