<svg viewBox="0 0 512.00097 512.00097" xmlns="http://www.w3.org/2000/svg"><path d="m469.429688 211.207031c-18.269532 0-33.886719 11.574219-39.910157 27.773438h-81.832031c-2.355469-14.371094-8.035156-27.632813-16.21875-38.976563l56.886719-56.886718c5.691406 2.742187 11.96875 4.199218 18.472656 4.199218 11.371094 0 22.0625-4.429687 30.101563-12.46875 8.039062-8.039062 12.46875-18.730468 12.46875-30.101562s-4.429688-22.058594-12.46875-30.101563c-16.597657-16.59375-43.601563-16.59375-60.199219 0h-.003907c-8.039062 8.042969-12.464843 18.730469-12.464843 30.101563 0 5.808594 1.160156 11.4375 3.363281 16.625l-57.425781 57.425781c-11.289063-8.089844-24.46875-13.707031-38.738281-16.046875v-80.53125c15.847656-6.199219 27.109374-21.628906 27.109374-39.648438 0-23.472656-19.097656-42.570312-42.570312-42.570312s-42.570312 19.09375-42.570312 42.570312c0 18.351563 11.679687 34.03125 27.992187 39.996094v80.183594c-14.265625 2.339844-27.445313 7.953125-38.738281 16.046875l-57.738282-57.738281c2-4.980469 3.054688-10.34375 3.054688-15.871094 0-11.371094-4.429688-22.0625-12.46875-30.101562-8.039062-8.042969-18.730469-12.46875-30.101562-12.46875-11.371094 0-22.058594 4.425781-30.101563 12.46875-8.039063 8.039062-12.464844 18.726562-12.464844 30.097656s4.425781 22.0625 12.464844 30.101562c8.300781 8.296875 19.203125 12.449219 30.101563 12.449219 6.582031 0 13.15625-1.523437 19.164062-4.546875l56.820312 56.816406c-8.1875 11.34375-13.863281 24.605469-16.222656 38.976563h-82.886718c-6.140626-15.96875-21.632813-27.332031-39.734376-27.332031-23.472656 0-42.570312 19.097656-42.570312 42.570312s19.097656 42.570312 42.570312 42.570312c18.269532 0 33.886719-11.574218 39.910157-27.773437h82.710937c2.34375 14.269531 7.957032 27.449219 16.050782 38.738281l-59.769532 59.769532c-15.40625-6.304688-33.78125-3.214844-46.269531 9.269531h-.003906c-16.597657 16.597656-16.597657 43.605469.003906 60.203125 8.296875 8.296875 19.199219 12.449218 30.097656 12.449218 10.902344 0 21.804688-4.152343 30.101563-12.449218 13.226562-13.226563 15.902344-33.058594 8.046875-48.972656l58.996093-58.996094c11.34375 8.183594 24.609376 13.863281 38.976563 16.21875v84.359375c-16.082031 6.085937-27.550781 21.636719-27.550781 39.824219 0 23.472656 19.097656 42.570312 42.570312 42.570312s42.570313-19.09375 42.570313-42.570312c0-18.1875-11.46875-33.738282-27.550781-39.824219v-84.359375c14.367187-2.359375 27.628906-8.035156 38.972656-16.222656l58.9375 58.941406c-7.78125 15.886718-5.085938 35.652344 8.105468 48.84375 8.300782 8.300781 19.199219 12.449218 30.101563 12.449218s21.800781-4.148437 30.101563-12.449218c16.597656-16.597656 16.597656-43.601563 0-60.199219-12.523438-12.523437-30.96875-15.59375-46.402344-9.21875l-59.636719-59.636719c8.09375-11.289062 13.707031-24.46875 16.046875-38.738281h82.007812c6.140626 15.96875 21.632813 27.332031 39.734376 27.332031 23.476562 0 42.570312-19.097656 42.570312-42.570312s-19.097656-42.570313-42.570312-42.570313zm0 0"/></svg>