<svg viewBox="1 0 511.99999 511" xmlns="http://www.w3.org/2000/svg"><path d="m142.910156 162.710938c12.535156 0 22.730469-10.195313 22.730469-22.730469 0-12.53125-10.195313-22.730469-22.730469-22.730469s-22.730468 10.195312-22.730468 22.730469c0 12.535156 10.195312 22.730469 22.730468 22.730469zm0 0"/><path d="m9.152344 351 86.621094-79.742188c13.820312-12.722656 35.488281-12.738281 49.328124-.03125l65.871094 60.472657c1.847656 1.695312 3.917969 1.765625 4.984375 1.660156 1.070313-.105469 3.082031-.589844 4.558594-2.613281l116.25-159.847656c6.386719-8.78125 16.265625-14.222657 27.097656-14.929688 10.847657-.707031 21.332031 3.402344 28.808594 11.277344l110.207031 116.128906h9.117188v-144.28125c.003906-76.421875-62.167969-138.59375-138.589844-138.59375h-234.8125c-76.421875 0-138.59375 62.171875-138.59375 138.59375v211.90625zm133.757812-263.765625c29.085938 0 52.746094 23.664063 52.746094 52.75 0 29.082031-23.660156 52.746094-52.746094 52.746094-29.085937 0-52.746094-23.664063-52.746094-52.746094 0-29.085937 23.660157-52.75 52.746094-52.75zm0 0"/><path d="m496.527344 313.957031h-.144532v-.003906c-3.765624-.148437-7.476562-1.699219-10.277343-4.652344l-115.207031-121.390625c-1.804688-1.902344-3.957032-2.058594-5.078126-1.988281-1.121093.070313-3.234374.511719-4.777343 2.632813l-116.253907 159.847656c-6.101562 8.390625-15.523437 13.792968-25.84375 14.824218-10.328124 1.027344-20.628906-2.398437-28.269531-9.414062l-65.875-60.476562c-2.4375-2.238282-6.257812-2.238282-8.695312.003906l-90.933594 83.710937c-.101563.09375-.210937.171875-.3125.261719-.183594.15625-.367187.3125-.554687.460938-.195313.15625-.394532.304687-.597657.445312-.183593.132812-.367187.261719-.558593.382812-.21875.140626-.4375.273438-.664063.402344-.183594.109375-.371094.214844-.566406.316406-.230469.121094-.46875.230469-.707031.339844-.195313.089844-.390626.179688-.589844.257813-.246094.097656-.492188.183593-.738282.269531-.203124.070312-.40625.140625-.613281.203125-.257812.078125-.519531.140625-.777343.199219-.207032.050781-.40625.101562-.613282.144531-.296875.054687-.59375.09375-.890625.132813-.175781.023437-.351562.054687-.53125.074218-.480469.046875-.960937.070313-1.445312.070313 0 0 0 0-.003907 0h-14.828124c3.714843 73.132812 64.375 131.484375 138.414062 131.484375h234.8125c76.421875 0 138.59375-62.171875 138.59375-138.589844v-59.953125h-15.472656zm0 0"/></svg>