<svg viewBox="0 -100 512.001 512" xmlns="http://www.w3.org/2000/svg"><path d="m430.554688 151.550781c41.890624 0 75.972656-33.996093 75.972656-75.777343s-34.082032-75.773438-75.972656-75.773438c-41.902344 0-75.996094 33.992188-75.996094 75.773438s34.089844 75.777343 75.996094 75.777343zm0 0"/><path d="m430.550781 168.78125c-48.722656 0-81.453125 43.050781-81.453125 83.253906v32.929688c0 14.492187 11.796875 26.28125 26.296875 26.28125h110.296875c14.507813 0 26.308594-11.789063 26.308594-26.28125v-32.929688c0-40.203125-32.730469-83.253906-81.449219-83.253906zm0 0"/><path d="m239.261719 166.472656c37.773437 0 68.507812-30.652344 68.507812-68.332031s-30.734375-68.335937-68.507812-68.335937c-37.785157 0-68.527344 30.65625-68.527344 68.335937s30.742187 68.332031 68.527344 68.332031zm0 0"/><path d="m239.257812 182.550781c-43.859374 0-73.316406 38.726563-73.316406 74.898438v28.894531c0 13.730469 11.175782 24.902344 24.914063 24.902344h96.789062c13.746094 0 24.929688-11.171875 24.929688-24.902344v-28.894531c-.003907-36.171875-29.460938-74.898438-73.316407-74.898438zm0 0"/><path d="m64.351562 182.960938c33.238282 0 60.277344-26.976563 60.277344-60.132813s-27.039062-60.128906-60.277344-60.128906c-33.246093 0-60.296874 26.972656-60.296874 60.128906s27.050781 60.132813 60.296874 60.132813zm0 0"/><path d="m64.347656 197.730469c-38.492187 0-64.347656 33.964843-64.347656 65.683593v24.453126c0 12.890624 10.492188 23.378906 23.390625 23.378906h81.902344c12.902343 0 23.398437-10.488282 23.398437-23.378906v-24.453126c0-31.71875-25.855468-65.683593-64.34375-65.683593zm0 0"/></svg>