<svg viewBox="0 0 511 511.99962" xmlns="http://www.w3.org/2000/svg"><path d="m254.347656 144.183594c7.5 0 13.605469-6.105469 13.605469-13.605469 0-7.503906-6.105469-13.609375-13.605469-13.609375-7.503906 0-13.609375 6.105469-13.609375 13.609375 0 7.5 6.105469 13.605469 13.609375 13.605469zm0 0"/><path d="m267.726562 325.945312v-112.722656h-45.824218v21.183594h4.5c10.039062 0 18.207031 8.167969 18.207031 18.210938v73.8125c0 10.039062-8.167969 18.207031-18.207031 18.207031h-4.5v21.183593h69.496094v-21.667968h-5.464844c-10.039063 0-18.207032-8.167969-18.207032-18.207032zm0 0"/><path d="m512.445312 245.636719c-1.53125-66.976563-29.011718-129.394531-77.382812-175.75-48.300781-46.289063-111.703125-71.082031-178.589844-69.8437502-66.882812-1.2421878-130.285156 23.5585932-178.585937 69.8437502-48.371094 46.355469-75.851563 108.773437-77.382813 175.75l-.003906.210937v.210938c.351562 68.261718 29.574219 133.15625 80.320312 178.640625v61.886719c0 12.011718 8.386719 22.476562 19.941407 24.882812 1.710937.355469 3.433593.53125 5.144531.53125 4.652344 0 9.222656-1.300781 13.242188-3.8125l49.738281-31.070312c28.050781 9.820312 57.328125 14.796874 87.085937 14.796874h.367188c1.648437.03125 3.28125.046876 4.921875.046876 65.105469-.003907 126.65625-24.707032 173.800781-69.886719 48.371094-46.355469 75.851562-108.773438 77.382812-175.75l.007813-.34375zm-258.097656-158.695313c24.058594 0 43.632813 19.574219 43.632813 43.636719s-19.574219 43.636719-43.632813 43.636719c-24.0625 0-43.636718-19.574219-43.636718-43.636719s19.574218-43.636719 43.636718-43.636719zm67.082032 281.332032c0 15.203124-12.371094 27.574218-27.578126 27.574218h-74.402343c-15.207031 0-27.578125-12.367187-27.578125-27.574218v-26.089844c0-13.542969 9.816406-24.839844 22.710937-27.144532v-51.03125c-12.894531-2.308593-22.710937-13.601562-22.710937-27.148437v-26.085937c0-15.207032 12.371094-27.578126 27.578125-27.578126h50.730469c15.203124 0 27.574218 12.371094 27.574218 27.578126v103.632812c13.363282 1.933594 23.671875 13.65625 23.671875 27.777344v26.089844zm0 0"/></svg>