<svg viewBox="0 0 511 511.99962" xmlns="http://www.w3.org/2000/svg"><path d="m512.445312 245.636719c-1.53125-66.976563-29.011718-129.394531-77.382812-175.75-48.300781-46.289063-111.726562-71.078125-178.589844-69.8437502-66.886718-1.2421878-130.285156 23.5585932-178.585937 69.8437502-48.371094 46.355469-75.851563 108.773437-77.382813 175.75l-.003906.210937v.210938c.351562 68.261718 29.574219 133.15625 80.320312 178.640625v61.886719c0 12.011718 8.386719 22.476562 19.941407 24.882812 1.710937.355469 3.433593.53125 5.144531.53125 4.652344 0 9.222656-1.300781 13.242188-3.8125l49.738281-31.070312c28.050781 9.820312 57.328125 14.796874 87.085937 14.796874h.367188c1.648437.03125 3.28125.046876 4.921875.046876 65.105469-.003907 126.65625-24.707032 173.800781-69.886719 48.371094-46.355469 75.851562-108.773438 77.382812-175.75l.007813-.34375zm-215.214843 93.492187c-7.9375 6.765625-16.9375 14.433594-26.375 22.6875-3.972657 3.480469-9.082031 5.402344-14.382813 5.402344-5.296875 0-10.40625-1.921875-14.386718-5.410156-9.355469-8.179688-18.390626-15.882813-26.363282-22.671875-48.519531-41.347657-83.574218-71.222657-83.574218-116.949219 0-21.148438 7.316406-40.730469 20.597656-55.136719 13.59375-14.746093 32.234375-22.867187 52.488281-22.867187 15.265625 0 29.230469 4.816406 41.511719 14.3125 3.4375 2.65625 6.683594 5.644531 9.726562 8.9375 3.046875-3.292969 6.292969-6.28125 9.730469-8.9375 12.277344-9.496094 26.246094-14.3125 41.511719-14.3125 20.253906 0 38.894531 8.121094 52.488281 22.867187 13.285156 14.40625 20.597656 33.988281 20.597656 55.136719 0 45.726562-35.054687 75.597656-83.570312 116.941406zm0 0"/><path d="m307.714844 174.210938c-8.582032 0-16.148438 2.628906-23.140625 8.035156-6.441407 4.984375-10.992188 11.382812-13.671875 15.878906-3.015625 5.054688-8.546875 8.195312-14.429688 8.195312-5.882812 0-11.410156-3.140624-14.425781-8.195312-2.683594-4.496094-7.230469-10.894531-13.671875-15.878906-6.992188-5.40625-14.5625-8.035156-23.140625-8.035156-24.949219 0-43.058594 20.175781-43.058594 47.976562 0 31.863281 27.484375 55.285156 73.023438 94.089844 6.507812 5.546875 13.71875 11.691406 21.273437 18.246094 7.601563-6.589844 14.792969-12.71875 21.28125-18.25 45.535156-38.800782 73.019532-62.222657 73.019532-94.085938 0-27.796875-18.109376-47.976562-43.058594-47.976562zm0 0"/></svg>