<svg viewBox="0 0 511 511.99962" xmlns="http://www.w3.org/2000/svg"><path d="m512.445312 245.636719c-1.53125-66.976563-29.011718-129.394531-77.382812-175.75-48.300781-46.289063-111.746094-71.078125-178.589844-69.8437502-66.871094-1.2421878-130.289062 23.5585932-178.585937 69.8437502-48.371094 46.355469-75.851563 108.773437-77.382813 175.75l-.003906.210937v.210938c.351562 68.265625 29.578125 133.15625 80.320312 178.640625v61.886719c0 12.011718 8.386719 22.476562 19.941407 24.882812 1.710937.355469 3.433593.53125 5.144531.53125 4.652344 0 9.222656-1.300781 13.246094-3.8125l49.738281-31.070312c28.050781 9.820312 57.324219 14.796874 87.082031 14.796874h.371094c1.644531.03125 3.277344.046876 4.917969.046876 65.105469-.003907 126.65625-24.707032 173.800781-69.886719 48.371094-46.355469 75.851562-108.773438 77.382812-175.75l.007813-.34375zm-376.238281-50.03125c-.039062 8.269531-6.753906 14.941406-15.011719 14.941406-.023437 0-.050781 0-.074218 0-8.292969-.042969-14.984375-6.796875-14.941406-15.089844.082031-16.292969 6.503906-31.578125 18.082031-43.039062 11.503906-11.390625 26.730469-17.648438 42.90625-17.648438h.3125c16.292969.082031 31.582031 6.503907 43.042969 18.082031 11.460937 11.578126 17.726562 26.925782 17.644531 43.21875-.039063 8.269532-6.753907 14.941407-15.011719 14.941407-.023438 0-.050781 0-.078125 0-8.289063-.042969-14.980469-6.800781-14.9375-15.089844.042969-8.273437-3.140625-16.066406-8.957031-21.945313-5.820313-5.878906-13.582032-9.136718-21.851563-9.179687-17.0625-.097656-31.035156 13.734375-31.125 30.808594zm193.375 151.210937c-19.53125 19.332032-45.378906 29.957032-72.835937 29.960938-.179688 0-.355469 0-.535156-.003906-27.660157-.136719-53.609376-11.039063-73.066407-30.695313s-30.097656-45.714844-29.957031-73.371094c.039062-8.265625 6.753906-14.9375 15.011719-14.9375h.078125c8.289062.039063 14.980468 6.796875 14.9375 15.089844-.101563 19.636719 7.453125 38.136719 21.269531 52.089844 13.816406 13.957031 32.238281 21.699219 51.875 21.796875h.382813c19.496093 0 37.847656-7.542969 51.710937-21.269532 13.957031-13.816406 21.695313-32.238281 21.796875-51.875.039062-8.269531 6.753906-14.941406 15.011719-14.941406h.074219c8.292968.042969 14.984374 6.796875 14.941406 15.089844-.136719 27.660156-11.039063 53.609375-30.695313 73.066406zm62.777344-134.902344c-.023437 0-.050781 0-.074219 0-8.292968-.039062-14.984375-6.796874-14.941406-15.089843.042969-8.269531-3.140625-16.0625-8.960938-21.941407-5.816406-5.878906-13.578124-9.140624-21.847656-9.179687-.054687 0-.105468 0-.160156 0-17.003906 0-30.878906 13.785156-30.964844 30.808594-.042968 8.265625-6.757812 14.9375-15.011718 14.9375-.027344 0-.050782 0-.078126 0-8.292968-.039063-14.980468-6.796875-14.9375-15.085938.167969-33.53125 27.5-60.691406 60.992188-60.691406h.3125c16.292969.082031 31.578125 6.507813 43.039062 18.082031 11.460938 11.582032 17.730469 26.929688 17.648438 43.222656-.042969 8.265626-6.757812 14.9375-15.015625 14.9375zm0 0"/></svg>