<svg viewBox="-88 1 511 511.99899" xmlns="http://www.w3.org/2000/svg"><path d="m334.609375 88.980469v-53.542969c0-19.539062-15.894531-35.4375-35.4375-35.4375h-58.746094c-16.738281 0-31.910156 9.238281-39.59375 24.113281l-31.777343 61.503907c-2.269532 4.390624-6.75 7.117187-11.691407 7.117187h-112.296875c-24.574218 0-44.566406 19.996094-44.566406 44.570313v63.972656c0 24.574218 19.992188 44.570312 44.566406 44.570312h41.207032l-80.800782 156.398438c-3.253906 6.292968-4.972656 13.367187-4.972656 20.457031v44.726563c0 24.578124 19.992188 44.570312 44.566406 44.570312h49.449219c16.742187 0 31.914063-9.238281 39.597656-24.113281l31.777344-61.503907c2.269531-4.390624 6.746094-7.117187 11.6875-7.117187h112.464844c24.574219 0 44.566406-19.996094 44.566406-44.570313v-63.972656c0-24.574218-19.992187-44.570312-44.566406-44.570312h-41.371094l80.964844-156.714844c3.253906-6.296875 4.972656-13.371094 4.972656-20.457031zm0 0"/></svg>