<svg viewBox="0 -32 511.99907 511" xmlns="http://www.w3.org/2000/svg"><path d="m497.792969 34.046875c-22.0625-32.902344-57.640625-33.535156-59.140625-33.546875h-.109375c-33.140625 0-64.683594 10.382812-91.21875 30.023438-20.390625 15.089843-37.925781 35.960937-48.101563 57.25-3.296875 6.898437-2.726562 14.808593 1.527344 21.167968 4.25 6.355469 11.332031 9.890625 18.972656 9.488282 16.152344-.878907 27.21875 2.855468 33.820313 11.398437 4.289062 5.554687 5.867187 12.222656 6.25 18.113281.441406 6.738282-.757813 13.484375-3.226563 19.769532-.378906.976562-.6875 1.75-.789062 2.007812l-.054688.136719c-37.488281 95.035156-63.015625 114.984375-77.828125 114.984375-1.425781 0-2.179687-.308594-2.210937-.320313l-.25-.101562c-2.726563-1.074219-17.140625-9.601563-33.023438-72.066407-10.25-40.308593-16.75-86.324218-19.714844-110.164062l-.027343-.214844c-1.925781-13.84375-4.617188-26.417968-8-37.378906-5.828125-18.871094-18.746094-34.226562-36.375-43.242188-17.734375-9.070312-37.894531-10.550781-56.765625-4.171874-3.339844 1.128906-6.332032 2.371093-9.148438 3.800781-36.433594 18.457031-83.433594 65.242187-106.015625 87.722656-7.957031 7.921875-8.519531 20.382813-1.308593 28.984375 7.527343 8.980469 20.628906 10.296875 29.828124 2.992188 9.082032-7.214844 17.390626-10.871094 24.695313-10.871094 12.742187 0 18.171875 11.550781 18.226563 11.667968l.210937.441407c29.535156 59.359375 49.101563 142.90625 49.292969 143.742187l.035156.136719c15.59375 64.441406 34.785156 110.730469 57.039062 137.585937 19.183594 23.148438 35.34375 24.945313 39.839844 24.945313h1.128906l.933594-.117187c112.195313-14.203126 216.203125-182.933594 255.710938-254.820313 11.738281-21.351563 20.222656-43.667969 25.21875-66.324219 8.695312-39.429687 5.527344-70.726562-9.421875-93.019531zm0 0"/></svg>