<svg viewBox="0 0 512 512.00099" xmlns="http://www.w3.org/2000/svg"><path d="m183.171875 263.070312h-32.789063v67.027344h32.789063c18.761719 0 28.144531-10.542968 28.144531-31.628906v-4.640625c0-10.832031-2.371094-18.667969-7.109375-23.503906-4.742187-4.832031-11.75-7.253907-21.035156-7.253907zm0 0"/><path d="m371.628906 280.4375c1.253906-.992188 1.886719-2.933594 1.886719-5.824219 0-6.320312-2.46875-11.472656-7.398437-15.449219-4.933594-3.96875-10.984376-5.960937-18.136719-5.960937-6.773438 0-12.671875 1.945313-17.699219 5.828125-5.03125 3.882812-7.542969 8.988281-7.542969 15.308594v7.589844h42.363281c3.089844 0 5.265626-.496094 6.527344-1.492188zm0 0"/><path d="m200.144531 226.800781c3.964844-4.449219 5.949219-10.542969 5.949219-18.28125 0-7.542969-2.082031-13.492187-6.238281-17.84375-4.160157-4.355469-9.914063-6.527343-17.265625-6.527343h-32.207032v49.324218h32.5c7.542969 0 13.296876-2.222656 17.261719-6.671875zm0 0"/><path d="m373.410156 0h-234.816406c-76.421875 0-138.59375 62.171875-138.59375 138.59375v234.8125c0 76.421875 62.171875 138.59375 138.59375 138.59375h234.816406c76.417969 0 138.589844-62.171875 138.589844-138.59375v-234.8125c0-76.421875-62.171875-138.59375-138.589844-138.59375zm-124.371094 301.660156c0 21.472656-5.222656 37.09375-15.667968 46.859375-10.449219 9.773438-24.570313 14.65625-42.363282 14.65625h-61.515624c-4.835938 0-8.804688-1.164062-11.894532-3.484375-3.097656-2.320312-4.644531-5.027344-4.644531-8.121094v-188.605468c0-3.671875 1.644531-6.570313 4.933594-8.703125 3.285156-2.125 7.152343-3.191407 11.605469-3.191407h56c38.882812 0 58.324218 17.023438 58.324218 51.066407 0 23.605469-8.226562 38.980469-24.664062 46.136719 9.863281 3.871093 17.308594 9.335937 22.339844 16.394531 5.027343 7.0625 7.546874 17.363281 7.546874 30.902343zm82.984376 26.839844c6.1875 5.128906 14.40625 7.691406 24.660156 7.691406 7.351562 0 14.605468-1.835937 21.761718-5.515625 7.15625-3.671875 11.796876-5.511719 13.929688-5.511719 4.0625 0 7.445312 1.882813 10.15625 5.65625 2.707031 3.773438 4.0625 7.398438 4.0625 10.882813 0 5.417969-4.890625 10.785156-14.65625 16.101563-9.769531 5.324218-21.90625 7.980468-36.414062 7.980468-20.699219 0-37.574219-5.464844-50.632813-16.394531-13.054687-10.925781-19.585937-25.289063-19.585937-43.085937v-24.664063c0-15.859375 6.191406-29.496094 18.570312-40.914063 12.378906-11.410156 27.371094-17.117187 44.976562-17.117187 16.4375 0 30.511719 5.199219 42.21875 15.59375 11.699219 10.398437 17.554688 23.464844 17.554688 39.203125 0 5.75-.726562 10.488281-2.179688 14.226562-1.449218 3.734376-3.675781 6.367188-6.671874 7.898438-3 1.53125-5.757813 2.496094-8.269532 2.875-2.515625.386719-5.804687.574219-9.863281.574219h-58.902344v4.355469c0 8.316406 3.089844 15.039062 9.285157 20.164062zm62.363281-120.617188h-93.867188c-8.289062 0-15.011719-6.722656-15.011719-15.011718 0-8.285156 6.722657-15.007813 15.011719-15.007813h93.867188c8.289062 0 15.011719 6.722657 15.011719 15.007813 0 8.289062-6.722657 15.011718-15.011719 15.011718zm0 0"/></svg>