<svg viewBox="1 1 511 511.99995" xmlns="http://www.w3.org/2000/svg"><path d="m167.726562 209.140625c-25.390624 0-46.050781 20.65625-46.050781 46.050781 0 25.476563 20.660157 46.203125 46.050781 46.203125 25.476563 0 46.203126-20.726562 46.203126-46.203125 0-25.394531-20.726563-46.050781-46.203126-46.050781zm0 0"/><path d="m345.835938 209.140625c-25.476563 0-46.199219 20.65625-46.199219 46.050781 0 25.476563 20.722656 46.203125 46.199219 46.203125 25.414062 0 46.089843-20.726562 46.089843-46.203125 0-25.394531-20.675781-46.050781-46.089843-46.050781zm0 0"/><path d="m437.484375 74.925781c-48.367187-48.316406-112.675781-74.925781-181.078125-74.925781-141.109375 0-255.90625 114.796875-255.90625 255.90625 0 141.210938 114.796875 256.09375 255.90625 256.09375 68.398438 0 132.707031-26.640625 181.082031-75.011719 48.371094-48.371093 75.011719-112.683593 75.011719-181.082031 0-68.378906-26.640625-132.652344-75.015625-180.980469zm-269.757813 256.441407c-41.917968 0-76.027343-34.171876-76.027343-76.175782 0-41.921875 34.109375-76.027344 76.027343-76.027344 42.003907 0 76.179688 34.105469 76.179688 76.027344 0 42.003906-34.175781 76.175782-76.179688 76.175782zm178.109376 0c-42.003907 0-76.175782-34.171876-76.175782-76.175782 0-41.921875 34.171875-76.027344 76.175782-76.027344 41.941406 0 76.066406 34.105469 76.066406 76.027344 0 42.003906-34.125 76.175782-76.066406 76.175782zm0 0"/></svg>