<svg viewBox="1 -44 511.99998 511" xmlns="http://www.w3.org/2000/svg"><path d="m97.949219 91.847656h36.351562v331.398438h-36.351562zm0 0"/><path d="m0 109.308594v296.476562c0 9.628906 7.835938 17.460938 17.464844 17.460938h50.453125v-331.398438h-50.453125c-9.628906 0-17.464844 7.832032-17.464844 17.460938zm0 0"/><path d="m494.535156 91.847656h-50.496094v331.398438h50.496094c9.628906 0 17.464844-7.832032 17.464844-17.460938v-296.476562c0-9.628906-7.835938-17.460938-17.464844-17.460938zm0 0"/><path d="m377.65625 91.847656h36.347656v331.398438h-36.347656zm0 0"/><path d="m327.050781 71.570312c0-39.1875-31.886719-71.070312-71.074219-71.070312s-71.070312 31.882812-71.070312 71.070312v20.277344h-20.574219v331.398438h183.289063v-331.398438h-20.570313zm-112.113281 0c0-22.628906 18.410156-41.039062 41.039062-41.039062 22.628907 0 41.042969 18.410156 41.042969 41.039062v20.277344h-82.082031zm0 0"/></svg>