<svg viewBox="0 0 512.00099 512" xmlns="http://www.w3.org/2000/svg"><path d="m83.042969 401.898438c14.492187 0 27.035156-5.199219 37.285156-15.449219s15.449219-22.796875 15.449219-37.285157c0-14.488281-5.199219-27.035156-15.449219-37.289062-10.253906-10.246094-22.796875-15.445312-37.285156-15.445312-14.492188 0-27.039063 5.199218-37.285157 15.449218-10.25 10.25-15.449218 22.792969-15.449218 37.285156 0 14.492188 5.195312 27.035157 15.449218 37.285157 10.253907 10.25 22.796876 15.449219 37.285157 15.449219zm0 0"/><path d="m166.375 447.746094c-.796875-4.453125-1.835938-8.6875-3.082031-12.585938-1.359375-4.246094-3.199219-8.421875-5.46875-12.417968-2.480469-4.359376-5.429688-8.191407-8.769531-11.386719-3.6875-3.527344-8.140626-6.339844-13.246094-8.363281-5.0625-2.003907-10.605469-3.019532-16.480469-3.019532-4.925781 0-8.785156 2.246094-12.328125 4.550782-2.121094 1.386718-4.523438 2.933593-7.1875 4.632812-1.121094.714844-3.269531 1.832031-7.152344 3.085938-5.765625 1.863281-11.222656 1.863281-16.992187 0-3.878907-1.253907-6.03125-2.371094-7.144531-3.078126-2.671876-1.707031-5.070313-3.253906-7.207032-4.648437-3.53125-2.296875-7.390625-4.542969-12.316406-4.542969-5.875 0-11.421875 1.015625-16.476562 3.019532-5.101563 2.019531-9.558594 4.835937-13.257813 8.371093-3.335937 3.195313-6.28125 7.023438-8.757813 11.382813-2.269531 3.992187-4.109374 8.167968-5.46875 12.417968-1.246093 3.890626-2.28125 8.125-3.082031 12.578126-.777343 4.339843-1.308593 8.488281-1.574219 12.324218-.253906 3.636719-.382812 7.40625-.382812 11.207032 0 15.058593 6.433594 24.347656 11.835938 29.488281 7.640624 7.277343 17.535156 10.960937 29.402343 10.960937h85.855469c11.867188 0 21.761719-3.6875 29.40625-10.960937 5.398438-5.136719 11.835938-14.425781 11.835938-29.492188-.003907-3.824219-.132813-7.59375-.386719-11.207031-.265625-3.824219-.792969-7.96875-1.574219-12.316406zm0 0"/><path d="m373.976562 349.164062c0 14.492188 5.195313 27.035157 15.449219 37.285157 10.253907 10.25 22.796875 15.449219 37.28125 15.449219 14.492188 0 27.039063-5.199219 37.289063-15.449219s15.445312-22.796875 15.445312-37.285157c0-14.488281-5.195312-27.035156-15.449218-37.289062-10.25-10.246094-22.796876-15.445312-37.285157-15.445312-14.492187 0-27.035156 5.199218-37.285156 15.449218s-15.445313 22.796875-15.445313 37.285156zm0 0"/><path d="m511.617188 460.054688c-.265626-3.824219-.796876-7.964844-1.574219-12.308594-.800781-4.453125-1.835938-8.6875-3.085938-12.585938-1.359375-4.246094-3.199219-8.421875-5.46875-12.417968-2.476562-4.359376-5.425781-8.191407-8.765625-11.386719-3.6875-3.527344-8.144531-6.339844-13.25-8.363281-5.058594-2.003907-10.605468-3.019532-16.476562-3.019532-4.929688 0-8.789063 2.246094-12.328125 4.550782-2.125 1.386718-4.523438 2.933593-7.1875 4.632812-1.121094.714844-3.273438 1.832031-7.152344 3.085938-5.765625 1.863281-11.226563 1.863281-16.996094 0-3.878906-1.253907-6.03125-2.371094-7.144531-3.078126-2.671875-1.707031-5.070312-3.253906-7.203125-4.648437-3.53125-2.296875-7.390625-4.542969-12.320313-4.542969-5.875 0-11.417968 1.015625-16.476562 3.019532-5.101562 2.023437-9.558594 4.835937-13.257812 8.371093-3.332032 3.191407-6.277344 7.023438-8.757813 11.382813-2.269531 3.992187-4.109375 8.167968-5.46875 12.417968-1.246094 3.894532-2.28125 8.125-3.082031 12.578126-.777344 4.34375-1.308594 8.488281-1.574219 12.324218-.253906 3.628906-.378906 7.402344-.378906 11.207032 0 15.058593 6.433593 24.347656 11.832031 29.488281 7.644531 7.277343 17.539062 10.960937 29.40625 10.960937h85.855469c11.867187 0 21.757812-3.6875 29.402343-10.960937 5.402344-5.136719 11.835938-14.425781 11.835938-29.492188 0-3.828125-.128906-7.601562-.382812-11.214843zm0 0"/><path d="m254.875 105.464844c14.492188 0 27.035156-5.195313 37.285156-15.449219 10.25-10.25 15.449219-22.792969 15.449219-37.285156 0-14.488281-5.195313-27.03125-15.449219-37.285157-10.25-10.246093-22.796875-15.445312-37.285156-15.445312-14.492188 0-27.035156 5.195312-37.285156 15.449219-10.25 10.25-15.449219 22.792969-15.449219 37.285156 0 14.488281 5.199219 27.035156 15.453125 37.285156 10.25 10.25 22.796875 15.445313 37.28125 15.445313zm0 0"/><path d="m339.785156 163.625c-.269531-3.824219-.796875-7.960938-1.574218-12.308594-.800782-4.453125-1.835938-8.6875-3.085938-12.585937-1.359375-4.246094-3.199219-8.425781-5.46875-12.414063-2.480469-4.363281-5.429688-8.195312-8.765625-11.390625-3.6875-3.527343-8.144531-6.339843-13.253906-8.363281-5.0625-2.003906-10.605469-3.019531-16.476563-3.019531-4.929687 0-8.789062 2.246093-12.328125 4.550781-2.121093 1.386719-4.523437 2.933594-7.183593 4.632812-1.125.714844-3.277344 1.832032-7.15625 3.085938-5.757813 1.859375-11.222657 1.863281-16.996094-.003906-3.871094-1.25-6.023438-2.367188-7.140625-3.078125-2.671875-1.707031-5.074219-3.253907-7.203125-4.640625-3.527344-2.300782-7.386719-4.546875-12.320313-4.546875-5.875 0-11.417969 1.015625-16.476562 3.019531-5.105469 2.019531-9.5625 4.835938-13.257813 8.371094-3.335937 3.191406-6.28125 7.023437-8.757812 11.378906-2.265625 3.988281-4.105469 8.167969-5.46875 12.421875-1.246094 3.894531-2.285156 8.125-3.082032 12.578125-.777343 4.339844-1.308593 8.484375-1.578124 12.324219-.25 3.628906-.375 7.398437-.375 11.203125 0 15.0625 6.429687 24.347656 11.832031 29.492187 7.644531 7.273438 17.535156 10.960938 29.40625 10.960938h85.851562c11.871094 0 21.761719-3.6875 29.40625-10.960938 5.402344-5.140625 11.835938-14.425781 11.835938-29.496093-.003907-3.824219-.128907-7.597657-.382813-11.210938zm0 0"/><path d="m301.824219 446.761719h-93.898438c-8.289062 0-15.011719 6.71875-15.011719 15.011719 0 8.289062 6.722657 15.011718 15.011719 15.011718h93.898438c8.292969 0 15.015625-6.722656 15.015625-15.011718 0-8.292969-6.722656-15.011719-15.015625-15.011719zm0 0"/><path d="m164.015625 225.976562c-6.738281-4.828124-16.117187-3.277343-20.945313 3.460938l-25.738281 35.914062c-4.828125 6.738282-3.28125 16.117188 3.460938 20.949219 2.648437 1.898438 5.703125 2.808594 8.730469 2.808594 4.675781 0 9.285156-2.175781 12.21875-6.265625l25.734374-35.917969c4.828126-6.738281 3.28125-16.117187-3.460937-20.949219zm0 0"/><path d="m380.230469 289.109375c3.023437 0 6.082031-.910156 8.730469-2.8125 6.742187-4.828125 8.289062-14.207031 3.460937-20.945313l-25.738281-35.917968c-4.828125-6.738282-14.207032-8.289063-20.945313-3.457032-6.742187 4.828126-8.289062 14.207032-3.460937 20.949219l25.734375 35.914063c2.933593 4.09375 7.539062 6.269531 12.21875 6.269531zm0 0"/></svg>