<svg viewBox="0 0 512 512.00008" xmlns="http://www.w3.org/2000/svg"><path d="m485.496094 351.722656c-17.21875-18.027344-41.476563-29.273437-68.308594-29.273437-52.089844 0-94.476562 42.375-94.476562 94.476562 0 .074219.003906.144531.003906.21875 0 .125-.003906.25-.003906.378907 0 22.71875 8.050781 43.578124 21.457031 59.894531 17.347656 21.097656 43.636719 34.582031 73.019531 34.582031 52.089844 0 94.476562-42.386719 94.476562-94.476562 0-.101563-.003906-.203126-.003906-.304688 0-.097656.003906-.195312.003906-.292969 0-25.257812-9.964843-48.238281-26.167968-65.203125zm-68.308594 105.660156c-8.285156 0-15.007812-6.722656-15.007812-15.003906v-51.496094c0-8.285156 6.722656-15.007812 15.007812-15.007812 8.28125 0 15.003906 6.722656 15.003906 15.007812v51.496094c0 8.28125-6.722656 15.003906-15.003906 15.003906zm0 0"/><path d="m434.324219 69.84375c-48.28125-46.257812-111.644531-71.050781-178.492188-69.796875-66.847656-1.210937-130.210937 23.539063-178.492187 69.796875-48.339844 46.328125-75.808594 108.710938-77.339844 175.660156v.417969c.351562 68.230469 29.5625 133.085937 80.273438 178.542969v61.855468c0 12.003907 8.382812 22.457032 19.9375 24.859376 1.699218.359374 3.429687.539062 5.140624.539062 4.640626 0 9.214844-1.300781 13.234376-3.808594l49.710937-31.054687c28.03125 9.816406 57.292969 14.785156 87.035156 14.785156h.371094c23.152344.449219 45.894531-2.230469 67.941406-7.949219-13.457031-18.820312-21.375-41.867187-21.375-66.765625 0-63.464843 51.449219-114.917969 114.917969-114.917969 29.773438 0 56.902344 11.324219 77.316406 29.898438 10.609375-27.226562 16.484375-56.339844 17.160156-85.722656v-.679688c-1.53125-66.949218-29-129.332031-77.339843-175.660156zm-210.335938 267.097656h-78.101562c-8.28125 0-15.003907-6.714844-15.003907-15.007812 0-8.28125 6.722657-15.003906 15.003907-15.003906h78.101562c8.285157 0 15.007813 6.722656 15.007813 15.003906 0 8.292968-6.722656 15.007812-15.007813 15.007812zm141.789063-66.378906h-219.890625c-8.28125 0-15.003907-6.722656-15.003907-15.003906 0-8.285156 6.722657-15.007813 15.003907-15.007813h219.890625c8.28125 0 15.003906 6.722657 15.003906 15.007813 0 8.28125-6.722656 15.003906-15.003906 15.003906zm0-66.375h-219.890625c-8.28125 0-15.003907-6.722656-15.003907-15.007812 0-8.292969 6.722657-15.003907 15.003907-15.003907h219.890625c8.28125 0 15.003906 6.710938 15.003906 15.003907 0 8.285156-6.722656 15.007812-15.003906 15.007812zm0 0"/></svg>