<svg viewBox="-40 1 511 511.99999" xmlns="http://www.w3.org/2000/svg"><path d="m426.566406 418.089844c-.003906-.003906-.003906-.003906-.007812-.007813-61.699219-53.597656-88.164063-122.957031-88.484375-231.914062-.097657-33.042969-13.707031-65.394531-37.335938-88.757813-22.972656-22.714844-52.984375-35.183594-84.617187-35.183594-.335938 0-.671875 0-1.007813.003907-66.667969.5625-120.902343 55.25-120.902343 121.910156 0 56.160156-6.941407 101.644531-21.21875 139.050781-14.039063 36.785156-36.03125 67.820313-67.230469 94.875-4.796875 4.160156-6.523438 10.949219-4.304688 16.894532 2.21875 5.945312 7.972657 9.9375 14.316407 9.9375l400.773437.015624c6.34375 0 12.101563-3.992187 14.320313-9.9375 2.214843-5.941406.488281-12.726562-4.300782-16.886718zm0 0"/><path d="m210.410156 512c27.128906 0 50.816406-14.941406 63.308594-37.019531l-126.621094-.003907c12.496094 22.078126 36.183594 37.023438 63.3125 37.023438zm0 0"/><path d="m216.121094 32.15625c17.398437 0 34.304687 3.78125 49.820312 10.957031-4.335937-24.464843-25.738281-43.113281-51.429687-43.113281-26.175781 0-47.914063 19.351562-51.671875 44.496094 15.828125-7.753906 33.5625-12.175782 52.273437-12.332032.335938-.003906.671875-.007812 1.007813-.007812zm0 0"/></svg>