<svg viewBox="0 0 512 512.00002" xmlns="http://www.w3.org/2000/svg"><path d="m334.757812 324.101562c-.257812-3.699218-.78125-7.800781-1.570312-12.199218-.769531-4.25-1.730469-8.21875-2.878906-11.808594-1.03125-3.207031-2.4375-6.40625-4.199219-9.496094-1.550781-2.730468-3.289063-5.027344-5.179687-6.839844-1.558594-1.476562-3.507813-2.679687-5.976563-3.65625-1.660156-.660156-3.511719-1.101562-5.53125-1.320312-.058594.039062-.128906.089844-.199219.128906-2.808594 1.839844-5.988281 3.890625-9.535156 6.148438-4.640625 2.96875-10.25 5.480468-17.136719 7.707031-14.148437 4.582031-28.875 4.582031-43.03125 0-6.878906-2.21875-12.476562-4.738281-17.117187-7.695313-3.558594-2.269531-6.738282-4.320312-9.558594-6.160156-.070312-.039062-.128906-.089844-.199219-.128906-2.011719.21875-3.859375.660156-5.519531 1.320312-2.46875.976563-4.417969 2.179688-5.976562 3.667969-1.890626 1.800781-3.632813 4.097657-5.179688 6.816407-1.75 3.089843-3.171875 6.289062-4.199219 9.507812-1.140625 3.582031-2.109375 7.558594-2.878906 11.820312-.78125 4.378907-1.3125 8.476563-1.570313 12.1875-.269531 3.886719-.410156 7.957032-.410156 12.066407 0 7.847656 2.617188 11.246093 4.589844 13.128906 3.296875 3.128906 7.945312 4.65625 14.214844 4.65625h110.648437c6.277344 0 10.925781-1.527344 14.226563-4.65625 1.96875-1.882813 4.578125-5.28125 4.578125-13.128906 0-4.128907-.140625-8.1875-.410157-12.058594zm0 0"/><path d="m259.59375 222.414062c9.5 0 17.046875-3.132812 23.765625-9.851562 6.71875-6.714844 9.847656-14.265625 9.847656-23.761719 0-9.5-3.128906-17.046875-9.847656-23.765625s-14.277344-9.847656-23.765625-9.847656c-9.496094 0-17.046875 3.128906-23.765625 9.847656s-9.855469 14.265625-9.855469 23.765625c0 9.496094 3.128906 17.046875 9.855469 23.761719 6.71875 6.71875 14.269531 9.851562 23.765625 9.851562zm0 0"/><path d="m14.996094 79.542969c-8.277344 0-14.996094 6.71875-14.996094 14.996093 0 8.289063 6.71875 14.996094 14.996094 14.996094h41.902344v-29.992187zm0 0"/><path d="m14.996094 144.527344c-8.277344 0-14.996094 6.71875-14.996094 15 0 8.285156 6.71875 14.996094 14.996094 14.996094h41.902344v-29.996094zm0 0"/><path d="m14.996094 210.324219c-8.277344 0-14.996094 6.710937-14.996094 14.996093 0 8.28125 6.71875 15 14.996094 15h41.902344v-29.996093zm0 0"/><path d="m14.996094 275.3125c-8.277344 0-14.996094 6.707031-14.996094 14.996094 0 8.277344 6.71875 14.996094 14.996094 14.996094h41.902344v-29.992188zm0 0"/><path d="m14.996094 339.246094c-8.277344 0-14.996094 6.71875-14.996094 14.996094 0 8.289062 6.71875 15 14.996094 15h41.902344v-29.996094zm0 0"/><path d="m14.996094 404.234375c-8.277344 0-14.996094 6.71875-14.996094 14.996094 0 8.289062 6.71875 14.996093 14.996094 14.996093h41.902344v-29.992187zm0 0"/><path d="m466.429688 125.175781c15.890624 0 33.921874 8.21875 44.976562 20.621094.265625-1.972656.414062-3.976563.414062-6.019531v-46.4375c0-25.027344-20.363281-45.390625-45.390624-45.390625h-3.816407v-29.824219c0-9.996094-8.140625-18.125-18.136719-18.125h-369.441406c-10 0-18.136718 8.128906-18.136718 18.125v61.417969h51.898437c8.277344 0 14.996094 6.71875 14.996094 14.996093 0 8.289063-6.71875 14.996094-14.996094 14.996094h-51.898437v34.992188h51.898437c8.277344 0 14.996094 6.71875 14.996094 15 0 8.285156-6.71875 14.996094-14.996094 14.996094h-51.898437v35.800781h51.898437c8.277344 0 14.996094 6.710937 14.996094 14.996093 0 8.28125-6.71875 15-14.996094 15h-51.898437v34.992188h51.898437c8.277344 0 14.996094 6.707031 14.996094 14.996094 0 8.277344-6.71875 14.996094-14.996094 14.996094h-51.898437v33.941406h51.898437c8.277344 0 14.996094 6.71875 14.996094 14.996094 0 8.289062-6.71875 15-14.996094 15h-51.898437v34.992187h51.898437c8.277344 0 14.996094 6.71875 14.996094 14.996094 0 8.289062-6.71875 14.996093-14.996094 14.996093h-51.898437v59.636719c0 10 8.136718 18.136719 18.136718 18.136719h369.4375c10 0 18.136719-8.136719 18.136719-18.136719v-94.253906h3.820313c25.027343 0 45.386718-20.363281 45.386718-45.390625v-46.4375c0-25.027344-20.359375-45.386719-45.386718-45.386719h-3.820313v-29.992187h3.820313c15.890624 0 33.921874 8.214844 44.976562 20.617187.265625-1.972656.414062-3.976562.414062-6.019531v-46.4375c0-25.027344-20.363281-45.390625-45.390624-45.390625h-3.816407v-29.992187h3.816407zm-251.816407 18.644531c12.367188-12.359374 27.503907-18.628906 44.980469-18.628906s32.601562 6.269532 44.972656 18.628906c12.367188 12.367188 18.632813 27.503907 18.632813 44.980469 0 17.476563-6.265625 32.613281-18.625 44.980469-12.367188 12.355469-27.503907 18.625-44.980469 18.625s-32.601562-6.269531-44.96875-18.625c-12.367188-12.367188-18.648438-27.503906-18.648438-44.980469 0-17.476562 6.28125-32.613281 18.636719-44.980469zm136.652344 227.199219c-9.019531 8.578125-20.757813 12.929688-34.902344 12.929688h-110.648437c-14.136719 0-25.882813-4.351563-34.890625-12.929688-9.230469-8.789062-13.90625-20.503906-13.90625-34.851562 0-4.808594.160156-9.558594.476562-14.148438.332031-4.777343 1-9.964843 1.980469-15.414062.992188-5.539063 2.28125-10.808594 3.828125-15.648438 1.660156-5.1875 3.910156-10.296875 6.691406-15.1875 2.976563-5.246093 6.515625-9.847656 10.507813-13.675781 4.359375-4.160156 9.636718-7.488281 15.683594-9.878906 6-2.378906 12.609374-3.589844 19.628906-3.589844 4.679687 0 8.496094 1.890625 13.507812 5.160156 2.746094 1.789063 5.855469 3.789063 9.316406 6 1.648438 1.046875 4.769532 2.6875 10.207032 4.4375 8.199218 2.648438 16.398437 2.648438 24.574218 0 5.449219-1.75 8.570313-3.378906 10.230469-4.4375 3.449219-2.210937 6.546875-4.210937 9.296875-6 5.019532-3.269531 8.828125-5.160156 13.507813-5.160156 7.015625 0 13.625 1.210938 19.632812 3.589844 6.058594 2.402344 11.328125 5.71875 15.679688 9.878906 3.996093 3.820312 7.535156 8.429688 10.515625 13.675781 2.78125 4.890625 5.03125 10 6.6875 15.1875 1.550781 4.839844 2.839844 10.109375 3.839844 15.65625.972656 5.449219 1.640624 10.628907 1.972656 15.398438.316406 4.566406.476562 9.328125.476562 14.144531 0 14.359375-4.675781 26.085938-13.894531 34.863281zm0 0"/></svg>