<svg viewBox="0 0 512 512.00002" xmlns="http://www.w3.org/2000/svg"><path d="m486.613281 0h-58.503906c-13.75 0-24.941406 11.1875-24.941406 24.941406v387.933594c0 13.753906 11.191406 24.941406 24.941406 24.941406h58.503906c13.75 0 24.941407-11.1875 24.941407-24.941406v-387.933594c0-13.753906-11.191407-24.941406-24.941407-24.941406zm0 0"/><path d="m122.0625 145.304688c-19.976562 20.203124-30.847656 46.675781-30.613281 74.535156.488281 58.015625 48.082031 105.214844 106.09375 105.214844 47.59375 0 86.105469 5.867187 117.734375 17.941406 17.257812 6.585937 33.011718 15.261718 47.53125 26.191406v-300.558594c-40.5625 30.453125-91.921875 43.992188-163.546875 44.203125-28.742188.085938-56.878907 11.921875-77.199219 32.472657zm0 0"/><path d="m54.628906 219.839844c-.183594-21.753906 6.40625-42.660156 18.8125-60.398438h-13.972656c-32.789062 0-59.46875 26.675782-59.46875 59.46875 0 32.789063 26.679688 59.46875 59.46875 59.46875h13.480469c-11.394531-16.746094-18.140625-36.886718-18.320313-58.539062zm0 0"/><path d="m162.75 349.15625c-3.914062 20.316406-10.921875 38.710938-20.65625 53.722656-16.425781 25.324219-32.464844 29.105469-40.5625 29.105469-22.058594 0-40.007812 17.949219-40.007812 40.007813 0 22.0625 17.949218 40.007812 40.007812 40.007812 42.023438 0 80.265625-23.292969 107.695312-65.585938 16.449219-25.367187 27.824219-56.105468 33.335938-89.332031-14.042969-1.339843-29.003906-2.019531-45.019531-2.019531-12.171875 0-23.878907-2.085938-34.792969-5.90625zm0 0"/></svg>